<?xml version="1.0" encoding="UTF-8"?>
<!DOCTYPE svg PUBLIC "-//W3C//DTD SVG 1.1//EN" "http://www.w3.org/Graphics/SVG/1.1/DTD/svg11.dtd">
<!-- Creator: CorelDRAW -->
<svg xmlns="http://www.w3.org/2000/svg" xml:space="preserve" width="43.3492mm" height="43.3492mm" version="1.1" style="shape-rendering:geometricPrecision; text-rendering:geometricPrecision; image-rendering:optimizeQuality; fill-rule:evenodd; clip-rule:evenodd"
viewBox="0 0 4334.92 4334.92"
 xmlns:xlink="http://www.w3.org/1999/xlink"
 xmlns:xodm="http://www.corel.com/coreldraw/odm/2003">
 <defs>
  <style type="text/css">
   <![CDATA[
    .fil9 {fill:#0299E3}
    .fil4 {fill:#445A64}
    .fil5 {fill:#546E79}
    .fil7 {fill:#788F9B}
    .fil2 {fill:#8EA2AC}
    .fil8 {fill:#8FA3AD}
    .fil6 {fill:#965716}
    .fil3 {fill:#AEBCC2}
    .fil10 {fill:#CCD6DA}
    .fil0 {fill:#CDD7DB}
    .fil1 {fill:#E9ECEE}
   ]]>
  </style>
 </defs>
 <g id="Capa_x0020_1">
  <metadata id="CorelCorpID_0Corel-Layer"/>
  <g id="_2397957544944">
   <polygon class="fil0" points="397.93,2582.33 406.4,2582.33 406.4,2760.12 414.87,2760.12 414.87,2751.66 423.33,2751.66 423.33,2743.19 431.8,2743.19 431.8,2734.72 440.27,2734.72 440.27,2726.26 448.73,2726.26 448.73,2717.79 457.2,2717.79 457.2,2709.33 465.67,2709.33 465.67,2700.86 474.13,2700.86 474.13,2692.39 482.6,2692.39 482.6,2683.93 491.07,2683.93 491.07,2675.46 499.53,2675.46 499.53,2666.99 508,2666.99 508,2658.53 516.47,2658.53 516.47,2650.06 524.93,2650.06 524.93,2641.59 533.4,2641.59 533.4,2633.13 541.87,2633.13 541.87,2624.66 550.33,2624.66 550.33,2616.19 558.8,2616.19 558.8,2607.73 567.26,2607.73 567.26,2599.26 575.73,2599.26 575.73,2590.79 584.2,2590.79 584.2,2582.33 592.66,2582.33 592.66,2573.86 601.13,2573.86 601.13,2565.39 609.6,2565.39 609.6,2556.93 618.06,2556.93 618.06,2548.46 626.53,2548.46 626.53,2539.99 635,2539.99 635,2531.53 643.46,2531.53 643.46,2523.06 651.93,2523.06 651.93,2514.59 660.4,2514.59 660.4,2506.13 668.86,2506.13 668.86,2497.66 677.33,2497.66 677.33,2489.19 685.8,2489.19 685.8,2480.73 694.26,2480.73 694.26,2472.26 702.73,2472.26 702.73,2463.79 711.2,2463.79 711.2,2455.33 719.66,2455.33 719.66,2446.86 728.13,2446.86 728.13,2438.39 736.6,2438.39 736.6,2429.93 745.06,2429.93 745.06,2421.46 753.53,2421.46 753.53,2412.99 762,2412.99 762,2404.53 770.46,2404.53 770.46,2396.06 778.93,2396.06 778.93,2387.59 787.4,2387.59 787.4,2379.13 795.86,2379.13 795.86,2370.66 804.33,2370.66 804.33,2362.19 812.8,2362.19 812.8,2353.73 821.26,2353.73 821.26,2345.26 829.73,2345.26 829.73,2336.79 838.2,2336.79 838.2,2328.33 846.66,2328.33 846.66,2319.86 855.13,2319.86 855.13,2311.39 863.6,2311.39 863.6,2302.93 872.06,2302.93 872.06,2294.46 880.53,2294.46 880.53,2285.99 889,2285.99 889,2277.53 897.46,2277.53 897.46,2269.06 905.93,2269.06 905.93,2260.59 914.4,2260.59 914.4,2252.13 922.86,2252.13 922.86,2243.66 931.33,2243.66 931.33,2235.19 939.8,2235.19 939.8,2226.73 948.26,2226.73 948.26,2218.26 956.73,2218.26 956.73,2209.79 965.2,2209.79 965.2,2201.33 973.66,2201.33 973.66,2192.86 982.13,2192.86 982.13,2184.39 990.6,2184.39 990.6,2175.93 999.06,2175.93 999.06,2167.46 1007.53,2167.46 1007.53,2158.99 1016,2158.99 1016,2150.53 1024.46,2150.53 1024.46,2142.06 1032.93,2142.06 1032.93,2133.59 1041.4,2133.59 1041.4,2125.13 1049.86,2125.13 1049.86,2116.66 1058.33,2116.66 1058.33,2108.19 1066.8,2108.19 1066.8,2099.73 1075.26,2099.73 1075.26,2091.26 1083.73,2091.26 1083.73,2082.79 1092.2,2082.79 1092.2,2074.33 1100.66,2074.33 1100.66,2065.86 1109.13,2065.86 1109.13,2057.39 1117.6,2057.39 1117.6,2048.93 1126.06,2048.93 1126.06,2040.46 1134.53,2040.46 1134.53,2031.99 1143,2031.99 1143,2023.53 1151.46,2023.53 1151.46,2015.06 1159.93,2015.06 1159.93,2006.59 1168.4,2006.59 1168.4,1998.13 1176.86,1998.13 1176.86,1989.66 1185.33,1989.66 1185.33,1981.19 1193.8,1981.19 1193.8,1972.73 1202.26,1972.73 1202.26,1964.26 1210.73,1964.26 1210.73,1955.79 1219.2,1955.79 1219.2,1947.33 1227.66,1947.33 1227.66,1938.86 1236.13,1938.86 1236.13,1930.39 1244.6,1930.39 1244.6,1921.93 1253.06,1921.93 1253.06,1913.46 1261.53,1913.46 1261.53,1904.99 1270,1904.99 1270,1896.53 1278.46,1896.53 1278.46,1888.06 1286.93,1888.06 1286.93,1879.59 1295.4,1879.59 1295.4,1871.13 1303.86,1871.13 1303.86,1862.66 1312.33,1862.66 1312.33,1854.19 1320.8,1854.19 1320.8,1845.73 1329.26,1845.73 1329.26,1837.26 1337.73,1837.26 1337.73,1828.79 1346.2,1828.79 1346.2,1820.33 1354.66,1820.33 1354.66,1811.86 1363.13,1811.86 1363.13,1803.39 1371.6,1803.39 1371.6,1794.93 1380.06,1794.93 1380.06,1786.46 1388.53,1786.46 1388.53,1777.99 1397,1777.99 1397,1769.53 1405.46,1769.53 1405.46,1761.06 1413.93,1761.06 1413.93,1752.59 1422.4,1752.59 1422.4,1744.13 1430.86,1744.13 1430.86,1735.66 1439.33,1735.66 1439.33,1727.19 1447.8,1727.19 1447.8,1718.73 1456.26,1718.73 1456.26,1710.26 1464.73,1710.26 1464.73,1701.79 1473.2,1701.79 1473.2,1693.33 1481.66,1693.33 1481.66,1684.86 1490.13,1684.86 1490.13,3657.59 1625.6,3657.59 1625.6,2709.33 2302.93,2709.33 2302.93,3657.59 2438.39,3657.59 2438.39,3793.06 2573.86,3793.06 2573.86,2573.86 2565.39,2573.86 2565.39,2565.39 2556.93,2565.39 2556.93,2556.93 2548.46,2556.93 2548.46,2548.46 2539.99,2548.46 2539.99,2539.99 2531.53,2539.99 2531.53,2531.53 2523.06,2531.53 2523.06,2523.06 2514.59,2523.06 2514.59,2514.59 2506.13,2514.59 2506.13,2506.13 2497.66,2506.13 2497.66,2497.66 2489.19,2497.66 2489.19,2489.19 2480.73,2489.19 2480.73,2480.73 2472.26,2480.73 2472.26,2472.26 2463.79,2472.26 2463.79,2463.79 2455.33,2463.79 2455.33,2455.33 2446.86,2455.33 2446.86,2446.86 2438.39,2446.86 2438.39,2438.39 2429.93,2438.39 2429.93,2429.93 2421.46,2429.93 2421.46,2421.46 2412.99,2421.46 2412.99,2412.99 2404.53,2412.99 2404.53,2404.53 2396.06,2404.53 2396.06,2396.06 2387.59,2396.06 2387.59,2387.59 2379.13,2387.59 2379.13,2379.13 2370.66,2379.13 2370.66,2370.66 2362.19,2370.66 2362.19,2362.19 2353.73,2362.19 2353.73,2353.73 2345.26,2353.73 2345.26,2345.26 2336.79,2345.26 2336.79,2336.79 2328.33,2336.79 2328.33,2328.33 2319.86,2328.33 2319.86,2319.86 2311.39,2319.86 2311.39,2311.39 2302.93,2311.39 2302.93,2302.93 2294.46,2302.93 2294.46,2294.46 2285.99,2294.46 2285.99,2285.99 2277.53,2285.99 2277.53,2277.53 2269.06,2277.53 2269.06,2269.06 2260.59,2269.06 2260.59,2260.59 2252.13,2260.59 2252.13,2252.13 2243.66,2252.13 2243.66,2243.66 2235.19,2243.66 2235.19,2235.19 2226.73,2235.19 2226.73,2226.73 2218.26,2226.73 2218.26,2218.26 2209.79,2218.26 2209.79,2209.79 2201.33,2209.79 2201.33,2201.33 2192.86,2201.33 2192.86,2192.86 2184.39,2192.86 2184.39,2184.39 2175.93,2184.39 2175.93,2175.93 2167.46,2175.93 2167.46,2167.46 2158.99,2167.46 2158.99,2158.99 2150.53,2158.99 2150.53,2150.53 2142.06,2150.53 2142.06,2142.06 2133.59,2142.06 2133.59,2133.59 2125.13,2133.59 2125.13,2125.13 2116.66,2125.13 2116.66,2116.66 2108.19,2116.66 2108.19,2108.19 2099.73,2108.19 2099.73,2099.73 2091.26,2099.73 2091.26,2091.26 2082.79,2091.26 2082.79,2082.79 2074.33,2082.79 2074.33,2074.33 2065.86,2074.33 2065.86,2065.86 2057.39,2065.86 2057.39,2057.39 2048.93,2057.39 2048.93,2048.93 2040.46,2048.93 2040.46,2040.46 2031.99,2040.46 2031.99,2031.99 2023.53,2031.99 2023.53,2023.53 2015.06,2023.53 2015.06,2015.06 2006.59,2015.06 2006.59,2006.59 1998.13,2006.59 1998.13,1998.13 1989.66,1998.13 1989.66,1989.66 1981.19,1989.66 1981.19,1981.19 1972.73,1981.19 1972.73,1972.73 1964.26,1972.73 1964.26,1964.26 1955.79,1964.26 1955.79,1955.79 1947.33,1955.79 1947.33,1947.33 1938.86,1947.33 1938.86,1938.86 1930.39,1938.86 1930.39,1930.39 1921.93,1930.39 1921.93,1921.93 1913.46,1921.93 1913.46,1913.46 1904.99,1913.46 1904.99,1904.99 1896.53,1904.99 1896.53,1896.53 1888.06,1896.53 1888.06,1888.06 1879.59,1888.06 1879.59,1879.59 1871.13,1879.59 1871.13,1871.13 1862.66,1871.13 1862.66,1862.66 1854.19,1862.66 1854.19,1854.19 1845.73,1854.19 1845.73,1845.73 1837.26,1845.73 1837.26,1837.26 1828.79,1837.26 1828.79,1828.79 1820.33,1828.79 1820.33,1820.33 1811.86,1820.33 1811.86,1811.86 1803.39,1811.86 1803.39,1803.39 1794.93,1803.39 1794.93,1794.93 1786.46,1794.93 1786.46,1786.46 1777.99,1786.46 1777.99,1777.99 1769.53,1777.99 1769.53,1769.53 1761.06,1769.53 1761.06,1761.06 1752.59,1761.06 1752.59,1752.59 1744.13,1752.59 1744.13,1744.13 1735.66,1744.13 1735.66,1735.66 1727.19,1735.66 1727.19,1727.19 1718.73,1727.19 1718.73,1718.73 1710.26,1718.73 1710.26,1710.26 1701.79,1710.26 1701.79,1701.79 1693.33,1701.79 1693.33,1693.33 1684.86,1693.33 1684.86,1684.86 1676.39,1684.86 1676.39,1676.39 1667.93,1676.39 1667.93,1667.93 1659.46,1667.93 1659.46,1659.46 1650.99,1659.46 1650.99,1650.99 1642.53,1650.99 1642.53,1642.53 1634.06,1642.53 1634.06,1634.06 1625.6,1634.06 1625.6,1625.6 1617.13,1625.6 1617.13,1617.13 1608.66,1617.13 1608.66,1608.66 1600.2,1608.66 1600.2,1600.2 1591.73,1600.2 1591.73,1591.73 1583.26,1591.73 1583.26,1583.26 1574.8,1583.26 1574.8,1574.8 1566.33,1574.8 1566.33,1566.33 1557.86,1566.33 1557.86,1557.86 1549.4,1557.86 1549.4,1549.4 1540.93,1549.4 1540.93,1540.93 1532.46,1540.93 1532.46,1532.46 1524,1532.46 1524,1524 1515.53,1524 1515.53,1515.53 1507.06,1515.53 1507.06,1507.06 1498.6,1507.06 1498.6,1498.6 1481.66,1498.6 1481.66,1507.06 1473.2,1507.06 1473.2,1515.53 1464.73,1515.53 1464.73,1524 1456.26,1524 1456.26,1532.46 1447.8,1532.46 1447.8,1540.93 1439.33,1540.93 1439.33,1549.4 1430.86,1549.4 1430.86,1557.86 1422.4,1557.86 1422.4,1566.33 1413.93,1566.33 1413.93,1574.8 1405.46,1574.8 1405.46,1583.26 1397,1583.26 1397,1591.73 1388.53,1591.73 1388.53,1600.2 1380.06,1600.2 1380.06,1608.66 1371.6,1608.66 1371.6,1617.13 1363.13,1617.13 1363.13,1625.6 1354.66,1625.6 1354.66,1634.06 1346.2,1634.06 1346.2,1642.53 1337.73,1642.53 1337.73,1650.99 1329.26,1650.99 1329.26,1659.46 1320.8,1659.46 1320.8,1667.93 1312.33,1667.93 1312.33,1676.39 1303.86,1676.39 1303.86,1684.86 1295.4,1684.86 1295.4,1693.33 1286.93,1693.33 1286.93,1701.79 1278.46,1701.79 1278.46,1710.26 1270,1710.26 1270,1718.73 1261.53,1718.73 1261.53,1727.19 1253.06,1727.19 1253.06,1735.66 1244.6,1735.66 1244.6,1744.13 1236.13,1744.13 1236.13,1752.59 1227.66,1752.59 1227.66,1761.06 1219.2,1761.06 1219.2,1769.53 1210.73,1769.53 1210.73,1777.99 1202.26,1777.99 1202.26,1786.46 1193.8,1786.46 1193.8,1794.93 1185.33,1794.93 1185.33,1803.39 1176.86,1803.39 1176.86,1811.86 1168.4,1811.86 1168.4,1820.33 1159.93,1820.33 1159.93,1828.79 1151.46,1828.79 1151.46,1837.26 1143,1837.26 1143,1845.73 1134.53,1845.73 1134.53,1854.19 1126.06,1854.19 1126.06,1862.66 1117.6,1862.66 1117.6,1871.13 1109.13,1871.13 1109.13,1879.59 1100.66,1879.59 1100.66,1888.06 1092.2,1888.06 1092.2,1896.53 1083.73,1896.53 1083.73,1904.99 1075.26,1904.99 1075.26,1913.46 1066.8,1913.46 1066.8,1921.93 1058.33,1921.93 1058.33,1930.39 1049.86,1930.39 1049.86,1938.86 1041.4,1938.86 1041.4,1947.33 1032.93,1947.33 1032.93,1955.79 1024.46,1955.79 1024.46,1964.26 1016,1964.26 1016,1972.73 1007.53,1972.73 1007.53,1981.19 999.06,1981.19 999.06,1989.66 990.6,1989.66 990.6,1998.13 982.13,1998.13 982.13,2006.59 973.66,2006.59 973.66,2015.06 965.2,2015.06 965.2,2023.53 956.73,2023.53 956.73,2031.99 948.26,2031.99 948.26,2040.46 939.8,2040.46 939.8,2048.93 931.33,2048.93 931.33,2057.39 922.86,2057.39 922.86,2065.86 914.4,2065.86 914.4,2074.33 905.93,2074.33 905.93,2082.79 897.46,2082.79 897.46,2091.26 889,2091.26 889,2099.73 880.53,2099.73 880.53,2108.19 872.06,2108.19 872.06,2116.66 863.6,2116.66 863.6,2125.13 855.13,2125.13 855.13,2133.59 846.66,2133.59 846.66,2142.06 838.2,2142.06 838.2,2150.53 829.73,2150.53 829.73,2158.99 821.26,2158.99 821.26,2167.46 812.8,2167.46 812.8,2175.93 804.33,2175.93 804.33,2184.39 795.86,2184.39 795.86,2192.86 787.4,2192.86 787.4,2201.33 778.93,2201.33 778.93,2209.79 770.46,2209.79 770.46,2218.26 762,2218.26 762,2226.73 753.53,2226.73 753.53,2235.19 745.06,2235.19 745.06,2243.66 736.6,2243.66 736.6,2252.13 728.13,2252.13 728.13,2260.59 719.66,2260.59 719.66,2269.06 711.2,2269.06 711.2,2277.53 702.73,2277.53 702.73,2285.99 694.26,2285.99 694.26,2294.46 685.8,2294.46 685.8,2302.93 677.33,2302.93 677.33,2311.39 668.86,2311.39 668.86,2319.86 660.4,2319.86 660.4,2328.33 651.93,2328.33 651.93,2336.79 643.46,2336.79 643.46,2345.26 635,2345.26 635,2353.73 626.53,2353.73 626.53,2362.19 618.06,2362.19 618.06,2370.66 609.6,2370.66 609.6,2379.13 601.13,2379.13 601.13,2387.59 592.66,2387.59 592.66,2396.06 584.2,2396.06 584.2,2404.53 575.73,2404.53 575.73,2412.99 567.26,2412.99 567.26,2421.46 558.8,2421.46 558.8,2429.93 550.33,2429.93 550.33,2438.39 541.87,2438.39 541.87,2446.86 533.4,2446.86 533.4,2455.33 524.93,2455.33 524.93,2463.79 516.47,2463.79 516.47,2472.26 508,2472.26 508,2480.73 499.53,2480.73 499.53,2489.19 491.07,2489.19 491.07,2497.66 482.6,2497.66 482.6,2506.13 474.13,2506.13 474.13,2514.59 465.67,2514.59 465.67,2523.06 457.2,2523.06 457.2,2531.53 448.73,2531.53 448.73,2539.99 440.27,2539.99 440.27,2548.46 431.8,2548.46 431.8,2556.93 423.33,2556.93 423.33,2565.39 414.87,2565.39 414.87,2573.86 397.93,2573.86 "/>
   <path class="fil1" d="M677.33 2709.33l677.33 0 0 677.33 -677.33 0 0 -677.33zm-270.93 50.79l0 1032.94 1083.73 0 0 -2108.2 -8.47 0 0 8.47 -8.46 0 0 8.46 -8.47 0 0 8.47 -8.47 0 0 8.47 -8.46 0 0 8.46 -8.47 0 0 8.47 -8.47 0 0 8.47 -8.46 0 0 8.46 -8.47 0 0 8.47 -8.47 0 0 8.47 -8.46 0 0 8.46 -8.47 0 0 8.47 -8.47 0 0 8.47 -8.46 0 0 8.46 -8.47 0 0 8.47 -8.47 0 0 8.47 -8.46 0 0 8.46 -8.47 0 0 8.47 -8.47 0 0 8.47 -8.46 0 0 8.46 -8.47 0 0 8.47 -8.47 0 0 8.47 -8.46 0 0 8.46 -8.47 0 0 8.47 -8.47 0 0 8.47 -8.46 0 0 8.46 -8.47 0 0 8.47 -8.47 0 0 8.47 -8.46 0 0 8.46 -8.47 0 0 8.47 -8.47 0 0 8.47 -8.46 0 0 8.46 -8.47 0 0 8.47 -8.47 0 0 8.47 -8.46 0 0 8.46 -8.47 0 0 8.47 -8.47 0 0 8.47 -8.46 0 0 8.46 -8.47 0 0 8.47 -8.47 0 0 8.47 -8.46 0 0 8.46 -8.47 0 0 8.47 -8.47 0 0 8.47 -8.46 0 0 8.46 -8.47 0 0 8.47 -8.47 0 0 8.47 -8.46 0 0 8.46 -8.47 0 0 8.47 -8.47 0 0 8.47 -8.46 0 0 8.46 -8.47 0 0 8.47 -8.47 0 0 8.47 -8.46 0 0 8.46 -8.47 0 0 8.47 -8.47 0 0 8.47 -8.46 0 0 8.46 -8.47 0 0 8.47 -8.47 0 0 8.47 -8.46 0 0 8.46 -8.47 0 0 8.47 -8.47 0 0 8.47 -8.46 0 0 8.46 -8.47 0 0 8.47 -8.47 0 0 8.47 -8.46 0 0 8.46 -8.47 0 0 8.47 -8.47 0 0 8.47 -8.46 0 0 8.46 -8.47 0 0 8.47 -8.47 0 0 8.47 -8.46 0 0 8.46 -8.47 0 0 8.47 -8.47 0 0 8.47 -8.46 0 0 8.46 -8.47 0 0 8.47 -8.47 0 0 8.47 -8.46 0 0 8.46 -8.47 0 0 8.47 -8.47 0 0 8.47 -8.46 0 0 8.46 -8.47 0 0 8.47 -8.47 0 0 8.47 -8.46 0 0 8.46 -8.47 0 0 8.47 -8.47 0 0 8.47 -8.46 0 0 8.46 -8.47 0 0 8.47 -8.47 0 0 8.47 -8.46 0 0 8.46 -8.47 0 0 8.47 -8.47 0 0 8.47 -8.46 0 0 8.46 -8.47 0 0 8.47 -8.47 0 0 8.47 -8.46 0 0 8.46 -8.47 0 0 8.47 -8.47 0 0 8.47 -8.46 0 0 8.46 -8.47 0 0 8.47 -8.47 0 0 8.47 -8.46 0 0 8.46 -8.47 0 0 8.47 -8.47 0 0 8.47 -8.46 0 0 8.46 -8.47 0 0 8.47 -8.47 0 0 8.47 -8.46 0 0 8.46 -8.47 0 0 8.47 -8.47 0 0 8.47 -8.46 0 0 8.46 -8.47 0 0 8.47 -8.46 0 0 8.47 -8.47 0 0 8.46 -8.47 0 0 8.47 -8.46 0 0 8.47 -8.47 0 0 8.46 -8.47 0 0 8.47 -8.46 0 0 8.47 -8.47 0 0 8.46 -8.47 0 0 8.47 -8.46 0 0 8.47 -8.47 0 0 8.46 -8.47 0 0 8.47 -8.46 0 0 8.46 -8.47 0 0 8.47 -8.47 0 0 8.47 -8.46 0 0 8.46 -8.47 0z"/>
   <polygon class="fil2" points="2565.39,1227.66 2565.39,1236.13 2573.86,1236.13 2573.86,1244.6 2582.33,1244.6 2582.33,1253.06 2590.79,1253.06 2590.79,1261.53 2599.26,1261.53 2599.26,1270 2607.73,1270 2607.73,1278.46 2616.19,1278.46 2616.19,1286.93 2624.66,1286.93 2624.66,1295.4 2633.13,1295.4 2633.13,1303.86 2641.59,1303.86 2641.59,1312.33 2650.06,1312.33 2650.06,1320.8 2658.53,1320.8 2658.53,1337.73 2666.99,1337.73 2666.99,1312.33 2675.46,1312.33 2675.46,1303.86 2683.93,1303.86 2683.93,1295.4 2692.39,1295.4 2692.39,1286.93 2700.86,1286.93 2700.86,1278.46 2709.33,1278.46 2709.33,1270 2717.79,1270 2717.79,1261.53 2726.26,1261.53 2726.26,1253.06 2734.72,1253.06 2734.72,1244.6 2743.19,1244.6 2743.19,1236.13 2751.66,1236.13 2751.66,1227.66 2760.12,1227.66 2760.12,1219.2 2768.59,1219.2 2768.59,1210.73 2777.06,1210.73 2777.06,1202.26 2785.52,1202.26 2785.52,1193.8 2793.99,1193.8 2793.99,1185.33 2802.46,1185.33 2802.46,1176.86 2810.92,1176.86 2810.92,1168.4 2819.39,1168.4 2819.39,1159.93 2827.86,1159.93 2827.86,1151.46 2836.32,1151.46 2836.32,1143 2844.79,1143 2844.79,1507.06 2836.32,1507.06 2836.32,1515.53 2853.26,1515.53 2853.26,1524 2861.72,1524 2861.72,1532.46 2870.19,1532.46 2870.19,1540.93 2878.66,1540.93 2878.66,1549.4 2887.12,1549.4 2887.12,1557.86 2895.59,1557.86 2895.59,1566.33 2904.06,1566.33 2904.06,1574.8 2912.52,1574.8 2912.52,1583.26 2920.99,1583.26 2920.99,1591.73 2929.46,1591.73 2929.46,1600.2 2937.92,1600.2 2937.92,1608.66 2946.39,1608.66 2946.39,1617.13 2954.86,1617.13 2954.86,1625.6 2963.32,1625.6 2963.32,1634.06 2971.79,1634.06 2971.79,1642.53 2980.26,1642.53 2980.26,1650.99 2988.72,1650.99 2988.72,1659.46 2997.19,1659.46 2997.19,1667.93 3005.66,1667.93 3005.66,1676.39 3014.12,1676.39 3014.12,1684.86 3022.59,1684.86 3022.59,1693.33 3031.06,1693.33 3031.06,1701.79 3039.52,1701.79 3039.52,1710.26 3047.99,1710.26 3047.99,1718.73 3056.46,1718.73 3056.46,1727.19 3064.92,1727.19 3064.92,1735.66 3073.39,1735.66 3073.39,1744.13 3081.86,1744.13 3081.86,1752.59 3090.32,1752.59 3090.32,1761.06 3098.79,1761.06 3098.79,1769.53 3107.26,1769.53 3107.26,1777.99 3115.72,1777.99 3115.72,1786.46 3124.19,1786.46 3124.19,1794.93 3132.66,1794.93 3132.66,1803.39 3141.12,1803.39 3141.12,1811.86 3149.59,1811.86 3149.59,1820.33 3158.06,1820.33 3158.06,1828.79 3166.52,1828.79 3166.52,1837.26 3174.99,1837.26 3174.99,1845.73 3183.46,1845.73 3183.46,1854.19 3191.92,1854.19 3191.92,1862.66 3200.39,1862.66 3200.39,1871.13 3208.86,1871.13 3208.86,1879.59 3217.32,1879.59 3217.32,1888.06 3225.79,1888.06 3225.79,1896.53 3234.26,1896.53 3234.26,1904.99 3242.72,1904.99 3242.72,1913.46 3251.19,1913.46 3251.19,1921.93 3259.66,1921.93 3259.66,1930.39 3268.12,1930.39 3268.12,1938.86 3276.59,1938.86 3276.59,1947.33 3285.06,1947.33 3285.06,1955.79 3293.52,1955.79 3293.52,1964.26 3301.99,1964.26 3301.99,1972.73 3310.46,1972.73 3310.46,1981.19 3318.92,1981.19 3318.92,1989.66 3327.39,1989.66 3327.39,1998.13 3335.86,1998.13 3335.86,2006.59 3344.32,2006.59 3344.32,2015.06 3352.79,2015.06 3352.79,2023.53 3361.26,2023.53 3361.26,2031.99 3369.72,2031.99 3369.72,2040.46 3378.19,2040.46 3378.19,2048.93 3386.66,2048.93 3386.66,2057.39 3395.12,2057.39 3395.12,2065.86 3403.59,2065.86 3403.59,2074.33 3412.06,2074.33 3412.06,2082.79 3420.52,2082.79 3420.52,2091.26 3428.99,2091.26 3428.99,2099.73 3437.46,2099.73 3437.46,2108.19 3445.92,2108.19 3445.92,2116.66 3454.39,2116.66 3454.39,2125.13 3462.86,2125.13 3462.86,2133.59 3471.32,2133.59 3471.32,2142.06 3479.79,2142.06 3479.79,2150.53 3488.26,2150.53 3488.26,2158.99 3496.72,2158.99 3496.72,2167.46 3505.19,2167.46 3505.19,2175.93 3513.66,2175.93 3513.66,2184.39 3522.12,2184.39 3522.12,2192.86 3530.59,2192.86 3530.59,2201.33 3539.06,2201.33 3539.06,2209.79 3547.52,2209.79 3547.52,2218.26 3555.99,2218.26 3555.99,2226.73 3564.46,2226.73 3564.46,2235.19 3572.92,2235.19 3572.92,2243.66 3581.39,2243.66 3581.39,2252.13 3589.86,2252.13 3589.86,2260.59 3598.32,2260.59 3598.32,2285.99 3589.86,2285.99 3589.86,2294.46 3581.39,2294.46 3581.39,2302.93 3572.92,2302.93 3572.92,2311.39 3564.46,2311.39 3564.46,2319.86 3555.99,2319.86 3555.99,2328.33 3547.52,2328.33 3547.52,2336.79 3539.06,2336.79 3539.06,2345.26 3530.59,2345.26 3530.59,2353.73 3522.12,2353.73 3522.12,2362.19 3513.66,2362.19 3513.66,2370.66 3505.19,2370.66 3505.19,2379.13 3496.72,2379.13 3496.72,2387.59 3488.26,2387.59 3488.26,2396.06 3479.79,2396.06 3479.79,2404.53 3471.32,2404.53 3471.32,2412.99 3462.86,2412.99 3462.86,2421.46 3454.39,2421.46 3454.39,2429.93 3445.92,2429.93 3445.92,2438.39 3437.46,2438.39 3437.46,2446.86 3428.99,2446.86 3428.99,2455.33 3420.52,2455.33 3420.52,2463.79 3403.59,2463.79 3403.59,2446.86 3395.12,2446.86 3395.12,2438.39 3386.66,2438.39 3386.66,2429.93 3378.19,2429.93 3378.19,2421.46 3369.72,2421.46 3369.72,2412.99 3361.26,2412.99 3361.26,2404.53 3352.79,2404.53 3352.79,2396.06 3344.32,2396.06 3344.32,2387.59 3335.86,2387.59 3335.86,2379.13 3327.39,2379.13 3327.39,2370.66 3318.92,2370.66 3318.92,2362.19 3310.46,2362.19 3310.46,2353.73 3301.99,2353.73 3301.99,2345.26 3293.52,2345.26 3293.52,2336.79 3285.06,2336.79 3285.06,2328.33 3276.59,2328.33 3276.59,2319.86 3268.12,2319.86 3268.12,2311.39 3259.66,2311.39 3259.66,2302.93 3251.19,2302.93 3251.19,3251.19 3928.52,3251.19 3928.52,2040.46 3936.99,2040.46 3936.99,2031.99 3928.52,2031.99 3928.52,2023.53 3920.05,2023.53 3920.05,2015.06 3911.59,2015.06 3911.59,2006.59 3894.65,2006.59 3894.65,1989.66 3886.19,1989.66 3886.19,1981.19 3877.72,1981.19 3877.72,1972.73 3869.25,1972.73 3869.25,1964.26 3860.79,1964.26 3860.79,1955.79 3852.32,1955.79 3852.32,1947.33 3843.85,1947.33 3843.85,1938.86 3835.39,1938.86 3835.39,1930.39 3826.92,1930.39 3826.92,1921.93 3818.45,1921.93 3818.45,1913.46 3809.99,1913.46 3809.99,1904.99 3801.52,1904.99 3801.52,1896.53 3793.06,1896.53 3793.06,1888.06 3784.59,1888.06 3784.59,1879.59 3776.12,1879.59 3776.12,1871.13 3767.66,1871.13 3767.66,1862.66 3759.19,1862.66 3759.19,1854.19 3750.72,1854.19 3750.72,1845.73 3742.26,1845.73 3742.26,1837.26 3733.79,1837.26 3733.79,1828.79 3725.32,1828.79 3725.32,1820.33 3716.86,1820.33 3716.86,1811.86 3708.39,1811.86 3708.39,1803.39 3699.92,1803.39 3699.92,1794.93 3691.46,1794.93 3691.46,1786.46 3682.99,1786.46 3682.99,1777.99 3674.52,1777.99 3674.52,1769.53 3666.06,1769.53 3666.06,1761.06 3657.59,1761.06 3657.59,1752.59 3649.12,1752.59 3649.12,1744.13 3640.66,1744.13 3640.66,1735.66 3632.19,1735.66 3632.19,1727.19 3623.72,1727.19 3623.72,1718.73 3615.26,1718.73 3615.26,1710.26 3606.79,1710.26 3606.79,1701.79 3598.32,1701.79 3598.32,1693.33 3589.86,1693.33 3589.86,1684.86 3581.39,1684.86 3581.39,1676.39 3572.92,1676.39 3572.92,1667.93 3564.46,1667.93 3564.46,1659.46 3555.99,1659.46 3555.99,1650.99 3547.52,1650.99 3547.52,1642.53 3539.06,1642.53 3539.06,1634.06 3530.59,1634.06 3530.59,1625.6 3522.12,1625.6 3522.12,1617.13 3513.66,1617.13 3513.66,1608.66 3505.19,1608.66 3505.19,1600.2 3496.72,1600.2 3496.72,1591.73 3488.26,1591.73 3488.26,1583.26 3479.79,1583.26 3479.79,1574.8 3471.32,1574.8 3471.32,1566.33 3462.86,1566.33 3462.86,1557.86 3454.39,1557.86 3454.39,1549.4 3445.92,1549.4 3445.92,1540.93 3437.46,1540.93 3437.46,1532.46 3428.99,1532.46 3428.99,1524 3420.52,1524 3420.52,1515.53 3412.06,1515.53 3412.06,1507.06 3403.59,1507.06 3403.59,1498.6 3395.12,1498.6 3395.12,1490.13 3386.66,1490.13 3386.66,1481.66 3378.19,1481.66 3378.19,1473.2 3369.72,1473.2 3369.72,1464.73 3361.26,1464.73 3361.26,1456.26 3352.79,1456.26 3352.79,1447.8 3344.32,1447.8 3344.32,1439.33 3335.86,1439.33 3335.86,1430.86 3327.39,1430.86 3327.39,1422.4 3318.92,1422.4 3318.92,1413.93 3310.46,1413.93 3310.46,1405.46 3301.99,1405.46 3301.99,1397 3293.52,1397 3293.52,1388.53 3285.06,1388.53 3285.06,1380.06 3276.59,1380.06 3276.59,1371.6 3268.12,1371.6 3268.12,1363.13 3259.66,1363.13 3259.66,1354.66 3251.19,1354.66 3251.19,1346.2 3242.72,1346.2 3242.72,1337.73 3234.26,1337.73 3234.26,1329.26 3225.79,1329.26 3225.79,1320.8 3217.32,1320.8 3217.32,1312.33 3208.86,1312.33 3208.86,1303.86 3200.39,1303.86 3200.39,1295.4 3191.92,1295.4 3191.92,1286.93 3183.46,1286.93 3183.46,1278.46 3174.99,1278.46 3174.99,1270 3166.52,1270 3166.52,1261.53 3158.06,1261.53 3158.06,1253.06 3149.59,1253.06 3149.59,1244.6 3141.12,1244.6 3141.12,1236.13 3132.66,1236.13 3132.66,1227.66 3124.19,1227.66 3124.19,1219.2 3115.72,1219.2 3115.72,1210.73 3107.26,1210.73 3107.26,1202.26 3098.79,1202.26 3098.79,1193.8 3090.32,1193.8 3090.32,1185.33 3081.86,1185.33 3081.86,1176.86 3073.39,1176.86 3073.39,1168.4 3064.92,1168.4 3064.92,1159.93 3056.46,1159.93 3056.46,1151.46 3047.99,1151.46 3047.99,1143 3039.52,1143 3039.52,1134.53 3031.06,1134.53 3031.06,1126.06 3022.59,1126.06 3022.59,1117.6 3014.12,1117.6 3014.12,1109.13 3005.66,1109.13 3005.66,1100.66 2997.19,1100.66 2997.19,1092.2 2988.72,1092.2 2988.72,1083.73 2980.26,1083.73 2980.26,1075.26 2971.79,1075.26 2971.79,1066.8 2963.32,1066.8 2963.32,1058.33 2954.86,1058.33 2954.86,1049.86 2946.39,1049.86 2946.39,1041.4 2937.92,1041.4 2937.92,1032.93 2929.46,1032.93 2929.46,1024.46 2920.99,1024.46 2920.99,1016 2912.52,1016 2912.52,1007.53 2904.06,1007.53 2904.06,999.06 2895.59,999.06 2895.59,990.6 2887.12,990.6 2887.12,982.13 2878.66,982.13 2878.66,973.66 2870.19,973.66 2870.19,965.2 2861.72,965.2 2861.72,956.73 2827.86,956.73 2827.86,973.66 2819.39,973.66 2819.39,982.13 2810.92,982.13 2810.92,990.6 2802.46,990.6 2802.46,999.06 2793.99,999.06 2793.99,1007.53 2785.52,1007.53 2785.52,1016 2777.06,1016 2777.06,1024.46 2768.59,1024.46 2768.59,1032.93 2760.12,1032.93 2760.12,1041.4 2751.66,1041.4 2751.66,1049.86 2743.19,1049.86 2743.19,1058.33 2734.72,1058.33 2734.72,1066.8 2726.26,1066.8 2726.26,1075.26 2717.79,1075.26 2717.79,1083.73 2709.33,1083.73 2709.33,1092.2 2700.86,1092.2 2700.86,1100.66 2692.39,1100.66 2692.39,1109.13 2683.93,1109.13 2683.93,1117.6 2675.46,1117.6 2675.46,1126.06 2666.99,1126.06 2666.99,1134.53 2658.53,1134.53 2658.53,1143 2650.06,1143 2650.06,1151.46 2641.59,1151.46 2641.59,1159.93 2633.13,1159.93 2633.13,1168.4 2624.66,1168.4 2624.66,1176.86 2616.19,1176.86 2616.19,1185.33 2607.73,1185.33 2607.73,1193.8 2599.26,1193.8 2599.26,1202.26 2590.79,1202.26 2590.79,1210.73 2582.33,1210.73 2582.33,1219.2 2573.86,1219.2 2573.86,1227.66 "/>
   <polygon class="fil3" points="1888.06,1498.6 1888.06,1507.06 1896.53,1507.06 1896.53,1515.53 1904.99,1515.53 1904.99,1524 1913.46,1524 1913.46,1532.46 1921.93,1532.46 1921.93,1540.93 1930.39,1540.93 1930.39,1549.4 1938.86,1549.4 1938.86,1557.86 1947.33,1557.86 1947.33,1566.33 1955.79,1566.33 1955.79,1574.8 1964.26,1574.8 1964.26,1583.26 1972.73,1583.26 1972.73,1591.73 1981.19,1591.73 1981.19,1600.2 1989.66,1600.2 1989.66,1583.26 1998.13,1583.26 1998.13,1574.8 2006.59,1574.8 2006.59,1566.33 2015.06,1566.33 2015.06,1557.86 2023.53,1557.86 2023.53,1549.4 2031.99,1549.4 2031.99,1540.93 2040.46,1540.93 2040.46,1532.46 2048.93,1532.46 2048.93,1524 2057.39,1524 2057.39,1515.53 2065.86,1515.53 2065.86,1507.06 2074.33,1507.06 2074.33,1498.6 2082.79,1498.6 2082.79,1490.13 2091.26,1490.13 2091.26,1481.66 2099.73,1481.66 2099.73,1473.2 2108.19,1473.2 2108.19,1464.73 2116.66,1464.73 2116.66,1456.26 2125.13,1456.26 2125.13,1447.8 2133.59,1447.8 2133.59,1439.33 2142.06,1439.33 2142.06,1430.86 2150.53,1430.86 2150.53,1422.4 2158.99,1422.4 2158.99,1413.93 2167.46,1413.93 2167.46,1769.53 2158.99,1769.53 2158.99,1777.99 2167.46,1777.99 2167.46,1786.46 2175.93,1786.46 2175.93,1794.93 2184.39,1794.93 2184.39,1803.39 2192.86,1803.39 2192.86,1811.86 2201.33,1811.86 2201.33,1820.33 2209.79,1820.33 2209.79,1828.79 2218.26,1828.79 2218.26,1837.26 2226.73,1837.26 2226.73,1845.73 2235.19,1845.73 2235.19,1854.19 2243.66,1854.19 2243.66,1862.66 2252.13,1862.66 2252.13,1871.13 2260.59,1871.13 2260.59,1879.59 2269.06,1879.59 2269.06,1888.06 2277.53,1888.06 2277.53,1896.53 2285.99,1896.53 2285.99,1904.99 2294.46,1904.99 2294.46,1913.46 2302.93,1913.46 2302.93,1921.93 2311.39,1921.93 2311.39,1930.39 2319.86,1930.39 2319.86,1938.86 2328.33,1938.86 2328.33,1947.33 2336.79,1947.33 2336.79,1955.79 2345.26,1955.79 2345.26,1964.26 2353.73,1964.26 2353.73,1972.73 2362.19,1972.73 2362.19,1981.19 2370.66,1981.19 2370.66,1989.66 2379.13,1989.66 2379.13,1998.13 2387.59,1998.13 2387.59,2006.59 2396.06,2006.59 2396.06,2015.06 2404.53,2015.06 2404.53,2023.53 2412.99,2023.53 2412.99,2031.99 2421.46,2031.99 2421.46,2040.46 2429.93,2040.46 2429.93,2048.93 2438.39,2048.93 2438.39,2057.39 2446.86,2057.39 2446.86,2065.86 2455.33,2065.86 2455.33,2074.33 2463.79,2074.33 2463.79,2082.79 2472.26,2082.79 2472.26,2091.26 2480.73,2091.26 2480.73,2099.73 2489.19,2099.73 2489.19,2108.19 2497.66,2108.19 2497.66,2116.66 2506.13,2116.66 2506.13,2125.13 2514.59,2125.13 2514.59,2133.59 2523.06,2133.59 2523.06,2142.06 2531.53,2142.06 2531.53,2150.53 2539.99,2150.53 2539.99,2158.99 2548.46,2158.99 2548.46,2167.46 2556.93,2167.46 2556.93,2175.93 2565.39,2175.93 2565.39,2184.39 2573.86,2184.39 2573.86,2192.86 2582.33,2192.86 2582.33,2201.33 2590.79,2201.33 2590.79,2209.79 2599.26,2209.79 2599.26,2218.26 2607.73,2218.26 2607.73,2226.73 2616.19,2226.73 2616.19,2235.19 2624.66,2235.19 2624.66,2243.66 2633.13,2243.66 2633.13,2252.13 2641.59,2252.13 2641.59,2260.59 2650.06,2260.59 2650.06,2269.06 2658.53,2269.06 2658.53,2277.53 2666.99,2277.53 2666.99,2285.99 2675.46,2285.99 2675.46,2294.46 2683.93,2294.46 2683.93,2302.93 2692.39,2302.93 2692.39,2311.39 2700.86,2311.39 2700.86,2319.86 2709.33,2319.86 2709.33,2328.33 2717.79,2328.33 2717.79,2336.79 2726.26,2336.79 2726.26,2345.26 2734.72,2345.26 2734.72,2353.73 2743.19,2353.73 2743.19,2362.19 2751.66,2362.19 2751.66,2370.66 2760.12,2370.66 2760.12,2379.13 2768.59,2379.13 2768.59,2387.59 2777.06,2387.59 2777.06,2396.06 2785.52,2396.06 2785.52,2404.53 2793.99,2404.53 2793.99,2412.99 2802.46,2412.99 2802.46,2421.46 2810.92,2421.46 2810.92,2429.93 2819.39,2429.93 2819.39,2438.39 2827.86,2438.39 2827.86,2446.86 2836.32,2446.86 2836.32,2455.33 2844.79,2455.33 2844.79,2463.79 2853.26,2463.79 2853.26,2472.26 2861.72,2472.26 2861.72,2480.73 2870.19,2480.73 2870.19,2489.19 2878.66,2489.19 2878.66,2497.66 2887.12,2497.66 2887.12,2506.13 2895.59,2506.13 2895.59,2514.59 2904.06,2514.59 2904.06,2523.06 2912.52,2523.06 2912.52,2531.53 2920.99,2531.53 2920.99,2539.99 2929.46,2539.99 2929.46,2548.46 2920.99,2548.46 2920.99,2556.93 2912.52,2556.93 2912.52,2565.39 2904.06,2565.39 2904.06,2573.86 2895.59,2573.86 2895.59,2582.33 2887.12,2582.33 2887.12,2590.79 2878.66,2590.79 2878.66,2599.26 2870.19,2599.26 2870.19,2607.73 2861.72,2607.73 2861.72,2616.19 2853.26,2616.19 2853.26,2624.66 2844.79,2624.66 2844.79,2633.13 2836.32,2633.13 2836.32,2641.59 2827.86,2641.59 2827.86,2650.06 2819.39,2650.06 2819.39,2658.53 2810.92,2658.53 2810.92,2666.99 2802.46,2666.99 2802.46,2675.46 2793.99,2675.46 2793.99,2683.93 2785.52,2683.93 2785.52,2692.39 2777.06,2692.39 2777.06,2700.86 2768.59,2700.86 2768.59,2709.33 2760.12,2709.33 2760.12,2717.79 2751.66,2717.79 2751.66,2726.26 2743.19,2726.26 2743.19,2734.72 2726.26,2734.72 2726.26,2726.26 2717.79,2726.26 2717.79,2717.79 2709.33,2717.79 2709.33,2709.33 2700.86,2709.33 2700.86,2700.86 2692.39,2700.86 2692.39,2692.39 2683.93,2692.39 2683.93,2683.93 2675.46,2683.93 2675.46,2675.46 2666.99,2675.46 2666.99,2666.99 2658.53,2666.99 2658.53,2658.53 2650.06,2658.53 2650.06,2650.06 2641.59,2650.06 2641.59,2641.59 2633.13,2641.59 2633.13,2633.13 2624.66,2633.13 2624.66,2624.66 2616.19,2624.66 2616.19,2616.19 2607.73,2616.19 2607.73,2607.73 2599.26,2607.73 2599.26,2599.26 2590.79,2599.26 2590.79,2590.79 2582.33,2590.79 2582.33,2582.33 2573.86,2582.33 2573.86,3522.12 3251.19,3522.12 3251.19,2294.46 3242.72,2294.46 3242.72,2285.99 3234.26,2285.99 3234.26,2277.53 3217.32,2277.53 3217.32,2260.59 3208.86,2260.59 3208.86,2252.13 3200.39,2252.13 3200.39,2243.66 3191.92,2243.66 3191.92,2235.19 3183.46,2235.19 3183.46,2226.73 3174.99,2226.73 3174.99,2218.26 3166.52,2218.26 3166.52,2209.79 3158.06,2209.79 3158.06,2201.33 3149.59,2201.33 3149.59,2192.86 3141.12,2192.86 3141.12,2184.39 3132.66,2184.39 3132.66,2175.93 3124.19,2175.93 3124.19,2167.46 3115.72,2167.46 3115.72,2158.99 3107.26,2158.99 3107.26,2150.53 3098.79,2150.53 3098.79,2142.06 3090.32,2142.06 3090.32,2133.59 3081.86,2133.59 3081.86,2125.13 3073.39,2125.13 3073.39,2116.66 3064.92,2116.66 3064.92,2108.19 3056.46,2108.19 3056.46,2099.73 3047.99,2099.73 3047.99,2091.26 3039.52,2091.26 3039.52,2082.79 3031.06,2082.79 3031.06,2074.33 3022.59,2074.33 3022.59,2065.86 3014.12,2065.86 3014.12,2057.39 3005.66,2057.39 3005.66,2048.93 2997.19,2048.93 2997.19,2040.46 2988.72,2040.46 2988.72,2031.99 2980.26,2031.99 2980.26,2023.53 2971.79,2023.53 2971.79,2015.06 2963.32,2015.06 2963.32,2006.59 2954.86,2006.59 2954.86,1998.13 2946.39,1998.13 2946.39,1989.66 2937.92,1989.66 2937.92,1981.19 2929.46,1981.19 2929.46,1972.73 2920.99,1972.73 2920.99,1964.26 2912.52,1964.26 2912.52,1955.79 2904.06,1955.79 2904.06,1947.33 2895.59,1947.33 2895.59,1938.86 2887.12,1938.86 2887.12,1930.39 2878.66,1930.39 2878.66,1921.93 2870.19,1921.93 2870.19,1913.46 2861.72,1913.46 2861.72,1904.99 2853.26,1904.99 2853.26,1896.53 2844.79,1896.53 2844.79,1888.06 2836.32,1888.06 2836.32,1879.59 2827.86,1879.59 2827.86,1871.13 2819.39,1871.13 2819.39,1862.66 2810.92,1862.66 2810.92,1854.19 2802.46,1854.19 2802.46,1845.73 2793.99,1845.73 2793.99,1837.26 2785.52,1837.26 2785.52,1828.79 2777.06,1828.79 2777.06,1820.33 2768.59,1820.33 2768.59,1811.86 2760.12,1811.86 2760.12,1803.39 2751.66,1803.39 2751.66,1794.93 2743.19,1794.93 2743.19,1786.46 2734.72,1786.46 2734.72,1777.99 2726.26,1777.99 2726.26,1769.53 2717.79,1769.53 2717.79,1761.06 2709.33,1761.06 2709.33,1752.59 2700.86,1752.59 2700.86,1744.13 2692.39,1744.13 2692.39,1735.66 2683.93,1735.66 2683.93,1727.19 2675.46,1727.19 2675.46,1718.73 2666.99,1718.73 2666.99,1710.26 2658.53,1710.26 2658.53,1701.79 2650.06,1701.79 2650.06,1693.33 2641.59,1693.33 2641.59,1684.86 2633.13,1684.86 2633.13,1676.39 2624.66,1676.39 2624.66,1667.93 2616.19,1667.93 2616.19,1659.46 2607.73,1659.46 2607.73,1650.99 2599.26,1650.99 2599.26,1642.53 2590.79,1642.53 2590.79,1634.06 2582.33,1634.06 2582.33,1625.6 2573.86,1625.6 2573.86,1617.13 2565.39,1617.13 2565.39,1608.66 2556.93,1608.66 2556.93,1600.2 2548.46,1600.2 2548.46,1591.73 2539.99,1591.73 2539.99,1583.26 2531.53,1583.26 2531.53,1574.8 2523.06,1574.8 2523.06,1566.33 2514.59,1566.33 2514.59,1557.86 2506.13,1557.86 2506.13,1549.4 2497.66,1549.4 2497.66,1540.93 2489.19,1540.93 2489.19,1532.46 2480.73,1532.46 2480.73,1524 2472.26,1524 2472.26,1515.53 2463.79,1515.53 2463.79,1507.06 2455.33,1507.06 2455.33,1498.6 2446.86,1498.6 2446.86,1490.13 2438.39,1490.13 2438.39,1481.66 2429.93,1481.66 2429.93,1473.2 2421.46,1473.2 2421.46,1464.73 2412.99,1464.73 2412.99,1456.26 2404.53,1456.26 2404.53,1447.8 2396.06,1447.8 2396.06,1439.33 2387.59,1439.33 2387.59,1430.86 2379.13,1430.86 2379.13,1422.4 2370.66,1422.4 2370.66,1413.93 2362.19,1413.93 2362.19,1405.46 2353.73,1405.46 2353.73,1397 2345.26,1397 2345.26,1388.53 2336.79,1388.53 2336.79,1380.06 2328.33,1380.06 2328.33,1371.6 2319.86,1371.6 2319.86,1363.13 2311.39,1363.13 2311.39,1354.66 2302.93,1354.66 2302.93,1346.2 2294.46,1346.2 2294.46,1337.73 2285.99,1337.73 2285.99,1329.26 2277.53,1329.26 2277.53,1320.8 2269.06,1320.8 2269.06,1312.33 2260.59,1312.33 2260.59,1303.86 2252.13,1303.86 2252.13,1295.4 2243.66,1295.4 2243.66,1286.93 2235.19,1286.93 2235.19,1278.46 2226.73,1278.46 2226.73,1270 2218.26,1270 2218.26,1261.53 2209.79,1261.53 2209.79,1253.06 2201.33,1253.06 2201.33,1244.6 2192.86,1244.6 2192.86,1236.13 2184.39,1236.13 2184.39,1227.66 2150.53,1227.66 2150.53,1244.6 2142.06,1244.6 2142.06,1253.06 2133.59,1253.06 2133.59,1261.53 2125.13,1261.53 2125.13,1270 2116.66,1270 2116.66,1278.46 2108.19,1278.46 2108.19,1286.93 2099.73,1286.93 2099.73,1295.4 2091.26,1295.4 2091.26,1303.86 2082.79,1303.86 2082.79,1312.33 2074.33,1312.33 2074.33,1320.8 2065.86,1320.8 2065.86,1329.26 2057.39,1329.26 2057.39,1337.73 2048.93,1337.73 2048.93,1346.2 2040.46,1346.2 2040.46,1354.66 2031.99,1354.66 2031.99,1363.13 2023.53,1363.13 2023.53,1371.6 2015.06,1371.6 2015.06,1380.06 2006.59,1380.06 2006.59,1388.53 1998.13,1388.53 1998.13,1397 1989.66,1397 1989.66,1405.46 1981.19,1405.46 1981.19,1413.93 1972.73,1413.93 1972.73,1422.4 1964.26,1422.4 1964.26,1430.86 1955.79,1430.86 1955.79,1439.33 1947.33,1439.33 1947.33,1447.8 1938.86,1447.8 1938.86,1456.26 1930.39,1456.26 1930.39,1464.73 1921.93,1464.73 1921.93,1473.2 1913.46,1473.2 1913.46,1481.66 1904.99,1481.66 1904.99,1490.13 1896.53,1490.13 1896.53,1498.6 "/>
   <polygon class="fil4" points="2836.32,575.73 2827.86,575.73 2827.86,584.2 2819.39,584.2 2819.39,592.66 2810.92,592.66 2810.92,601.13 2802.46,601.13 2802.46,609.6 2793.99,609.6 2793.99,618.06 2785.52,618.06 2785.52,626.53 2777.06,626.53 2777.06,635 2768.59,635 2768.59,643.46 2760.12,643.46 2760.12,651.93 2751.66,651.93 2751.66,660.4 2743.19,660.4 2743.19,668.86 2734.72,668.86 2734.72,677.33 2726.26,677.33 2726.26,685.8 2717.79,685.8 2717.79,694.26 2709.33,694.26 2709.33,702.73 2700.86,702.73 2700.86,711.2 2692.39,711.2 2692.39,719.66 2683.93,719.66 2683.93,728.13 2675.46,728.13 2675.46,736.6 2666.99,736.6 2666.99,745.06 2658.53,745.06 2658.53,753.53 2650.06,753.53 2650.06,762 2641.59,762 2641.59,770.46 2633.13,770.46 2633.13,778.93 2624.66,778.93 2624.66,787.4 2616.19,787.4 2616.19,795.86 2607.73,795.86 2607.73,804.33 2599.26,804.33 2599.26,812.8 2590.79,812.8 2590.79,821.26 2582.33,821.26 2582.33,829.73 2573.86,829.73 2573.86,838.2 2565.39,838.2 2565.39,846.66 2556.93,846.66 2556.93,855.13 2548.46,855.13 2548.46,863.6 2539.99,863.6 2539.99,872.06 2531.53,872.06 2531.53,880.53 2523.06,880.53 2523.06,889 2514.59,889 2514.59,897.46 2506.13,897.46 2506.13,905.93 2497.66,905.93 2497.66,914.4 2489.19,914.4 2489.19,922.86 2480.73,922.86 2480.73,931.33 2472.26,931.33 2472.26,939.8 2463.79,939.8 2463.79,948.26 2455.33,948.26 2455.33,956.73 2446.86,956.73 2446.86,965.2 2438.39,965.2 2438.39,973.66 2429.93,973.66 2429.93,982.13 2421.46,982.13 2421.46,990.6 2412.99,990.6 2412.99,999.06 2404.53,999.06 2404.53,1007.53 2396.06,1007.53 2396.06,1016 2387.59,1016 2387.59,1024.46 2379.13,1024.46 2379.13,1049.86 2387.59,1049.86 2387.59,1058.33 2396.06,1058.33 2396.06,1066.8 2404.53,1066.8 2404.53,1075.26 2412.99,1075.26 2412.99,1083.73 2421.46,1083.73 2421.46,1092.2 2429.93,1092.2 2429.93,1100.66 2438.39,1100.66 2438.39,1109.13 2446.86,1109.13 2446.86,1117.6 2455.33,1117.6 2455.33,1126.06 2463.79,1126.06 2463.79,1134.53 2472.26,1134.53 2472.26,1143 2480.73,1143 2480.73,1151.46 2489.19,1151.46 2489.19,1159.93 2497.66,1159.93 2497.66,1168.4 2506.13,1168.4 2506.13,1176.86 2514.59,1176.86 2514.59,1185.33 2523.06,1185.33 2523.06,1193.8 2531.53,1193.8 2531.53,1202.26 2539.99,1202.26 2539.99,1210.73 2548.46,1210.73 2548.46,1219.2 2556.93,1219.2 2556.93,1227.66 2573.86,1227.66 2573.86,1219.2 2582.33,1219.2 2582.33,1210.73 2590.79,1210.73 2590.79,1202.26 2599.26,1202.26 2599.26,1193.8 2607.73,1193.8 2607.73,1185.33 2616.19,1185.33 2616.19,1176.86 2624.66,1176.86 2624.66,1168.4 2633.13,1168.4 2633.13,1159.93 2641.59,1159.93 2641.59,1151.46 2650.06,1151.46 2650.06,1143 2658.53,1143 2658.53,1134.53 2666.99,1134.53 2666.99,1126.06 2675.46,1126.06 2675.46,1117.6 2683.93,1117.6 2683.93,1109.13 2692.39,1109.13 2692.39,1100.66 2700.86,1100.66 2700.86,1092.2 2709.33,1092.2 2709.33,1083.73 2717.79,1083.73 2717.79,1075.26 2726.26,1075.26 2726.26,1066.8 2734.72,1066.8 2734.72,1058.33 2743.19,1058.33 2743.19,1049.86 2751.66,1049.86 2751.66,1041.4 2760.12,1041.4 2760.12,1032.93 2768.59,1032.93 2768.59,1024.46 2777.06,1024.46 2777.06,1016 2785.52,1016 2785.52,1007.53 2793.99,1007.53 2793.99,999.06 2802.46,999.06 2802.46,990.6 2810.92,990.6 2810.92,982.13 2819.39,982.13 2819.39,973.66 2827.86,973.66 2827.86,956.73 2861.72,956.73 2861.72,965.2 2870.19,965.2 2870.19,973.66 2878.66,973.66 2878.66,982.13 2887.12,982.13 2887.12,990.6 2895.59,990.6 2895.59,999.06 2904.06,999.06 2904.06,1007.53 2912.52,1007.53 2912.52,1016 2920.99,1016 2920.99,1024.46 2929.46,1024.46 2929.46,1032.93 2937.92,1032.93 2937.92,1041.4 2946.39,1041.4 2946.39,1049.86 2954.86,1049.86 2954.86,1058.33 2963.32,1058.33 2963.32,1066.8 2971.79,1066.8 2971.79,1075.26 2980.26,1075.26 2980.26,1083.73 2988.72,1083.73 2988.72,1092.2 2997.19,1092.2 2997.19,1100.66 3005.66,1100.66 3005.66,1109.13 3014.12,1109.13 3014.12,1117.6 3022.59,1117.6 3022.59,1126.06 3031.06,1126.06 3031.06,1134.53 3039.52,1134.53 3039.52,1143 3047.99,1143 3047.99,1151.46 3056.46,1151.46 3056.46,1159.93 3064.92,1159.93 3064.92,1168.4 3073.39,1168.4 3073.39,1176.86 3081.86,1176.86 3081.86,1185.33 3090.32,1185.33 3090.32,1193.8 3098.79,1193.8 3098.79,1202.26 3107.26,1202.26 3107.26,1210.73 3115.72,1210.73 3115.72,1219.2 3124.19,1219.2 3124.19,1227.66 3132.66,1227.66 3132.66,1236.13 3141.12,1236.13 3141.12,1244.6 3149.59,1244.6 3149.59,1253.06 3158.06,1253.06 3158.06,1261.53 3166.52,1261.53 3166.52,1270 3174.99,1270 3174.99,1278.46 3183.46,1278.46 3183.46,1286.93 3191.92,1286.93 3191.92,1295.4 3200.39,1295.4 3200.39,1303.86 3208.86,1303.86 3208.86,1312.33 3217.32,1312.33 3217.32,1320.8 3225.79,1320.8 3225.79,1329.26 3234.26,1329.26 3234.26,1337.73 3242.72,1337.73 3242.72,1346.2 3251.19,1346.2 3251.19,1354.66 3259.66,1354.66 3259.66,1363.13 3268.12,1363.13 3268.12,1371.6 3276.59,1371.6 3276.59,1380.06 3285.06,1380.06 3285.06,1388.53 3293.52,1388.53 3293.52,1397 3301.99,1397 3301.99,1405.46 3310.46,1405.46 3310.46,1413.93 3318.92,1413.93 3318.92,1422.4 3327.39,1422.4 3327.39,1430.86 3335.86,1430.86 3335.86,1439.33 3344.32,1439.33 3344.32,1447.8 3352.79,1447.8 3352.79,1456.26 3361.26,1456.26 3361.26,1464.73 3369.72,1464.73 3369.72,1473.2 3378.19,1473.2 3378.19,1481.66 3386.66,1481.66 3386.66,1490.13 3395.12,1490.13 3395.12,1498.6 3403.59,1498.6 3403.59,1507.06 3412.06,1507.06 3412.06,1515.53 3420.52,1515.53 3420.52,1524 3428.99,1524 3428.99,1532.46 3437.46,1532.46 3437.46,1540.93 3445.92,1540.93 3445.92,1549.4 3454.39,1549.4 3454.39,1557.86 3462.86,1557.86 3462.86,1566.33 3471.32,1566.33 3471.32,1574.8 3479.79,1574.8 3479.79,1583.26 3488.26,1583.26 3488.26,1591.73 3496.72,1591.73 3496.72,1600.2 3505.19,1600.2 3505.19,1608.66 3513.66,1608.66 3513.66,1617.13 3522.12,1617.13 3522.12,1625.6 3530.59,1625.6 3530.59,1634.06 3539.06,1634.06 3539.06,1642.53 3547.52,1642.53 3547.52,1650.99 3555.99,1650.99 3555.99,1659.46 3564.46,1659.46 3564.46,1667.93 3572.92,1667.93 3572.92,1676.39 3581.39,1676.39 3581.39,1684.86 3589.86,1684.86 3589.86,1693.33 3598.32,1693.33 3598.32,1701.79 3606.79,1701.79 3606.79,1710.26 3615.26,1710.26 3615.26,1718.73 3623.72,1718.73 3623.72,1727.19 3632.19,1727.19 3632.19,1735.66 3640.66,1735.66 3640.66,1744.13 3649.12,1744.13 3649.12,1752.59 3657.59,1752.59 3657.59,1761.06 3666.06,1761.06 3666.06,1769.53 3674.52,1769.53 3674.52,1777.99 3682.99,1777.99 3682.99,1786.46 3691.46,1786.46 3691.46,1794.93 3699.92,1794.93 3699.92,1803.39 3708.39,1803.39 3708.39,1811.86 3716.86,1811.86 3716.86,1820.33 3725.32,1820.33 3725.32,1828.79 3733.79,1828.79 3733.79,1837.26 3742.26,1837.26 3742.26,1845.73 3750.72,1845.73 3750.72,1854.19 3759.19,1854.19 3759.19,1862.66 3767.66,1862.66 3767.66,1871.13 3776.12,1871.13 3776.12,1879.59 3784.59,1879.59 3784.59,1888.06 3793.06,1888.06 3793.06,1896.53 3801.52,1896.53 3801.52,1904.99 3809.99,1904.99 3809.99,1913.46 3818.45,1913.46 3818.45,1921.93 3826.92,1921.93 3826.92,1930.39 3835.39,1930.39 3835.39,1938.86 3843.85,1938.86 3843.85,1947.33 3852.32,1947.33 3852.32,1955.79 3860.79,1955.79 3860.79,1964.26 3869.25,1964.26 3869.25,1972.73 3877.72,1972.73 3877.72,1981.19 3886.19,1981.19 3886.19,1989.66 3894.65,1989.66 3894.65,2006.59 3911.59,2006.59 3911.59,2015.06 3920.05,2015.06 3920.05,2023.53 3928.52,2023.53 3928.52,2031.99 3936.99,2031.99 3936.99,2048.93 3945.45,2048.93 3945.45,2057.39 3953.92,2057.39 3953.92,2065.86 3962.39,2065.86 3962.39,2074.33 3970.85,2074.33 3970.85,2082.79 3979.32,2082.79 3979.32,2091.26 3987.79,2091.26 3987.79,2099.73 3996.25,2099.73 3996.25,2108.19 4004.72,2108.19 4004.72,2116.66 4013.19,2116.66 4013.19,2125.13 4021.65,2125.13 4021.65,2133.59 4030.12,2133.59 4030.12,2142.06 4038.59,2142.06 4038.59,2150.53 4047.05,2150.53 4047.05,2158.99 4055.52,2158.99 4055.52,2167.46 4063.99,2167.46 4063.99,2175.93 4072.45,2175.93 4072.45,2184.39 4080.92,2184.39 4080.92,2192.86 4097.85,2192.86 4097.85,2184.39 4106.32,2184.39 4106.32,2175.93 4114.79,2175.93 4114.79,2167.46 4123.25,2167.46 4123.25,2158.99 4131.72,2158.99 4131.72,2150.53 4140.19,2150.53 4140.19,2142.06 4148.65,2142.06 4148.65,2133.59 4157.12,2133.59 4157.12,2125.13 4165.59,2125.13 4165.59,2116.66 4174.05,2116.66 4174.05,2108.19 4182.52,2108.19 4182.52,2099.73 4190.99,2099.73 4190.99,2091.26 4199.45,2091.26 4199.45,2082.79 4207.92,2082.79 4207.92,2074.33 4216.39,2074.33 4216.39,2065.86 4224.85,2065.86 4224.85,2057.39 4233.32,2057.39 4233.32,2048.93 4241.79,2048.93 4241.79,2040.46 4250.25,2040.46 4250.25,2031.99 4258.72,2031.99 4258.72,2023.53 4267.19,2023.53 4267.19,2015.06 4275.65,2015.06 4275.65,1989.66 4267.19,1989.66 4267.19,1981.19 4258.72,1981.19 4258.72,1972.73 4250.25,1972.73 4250.25,1964.26 4241.79,1964.26 4241.79,1955.79 4233.32,1955.79 4233.32,1947.33 4224.85,1947.33 4224.85,1938.86 4216.39,1938.86 4216.39,1930.39 4207.92,1930.39 4207.92,1921.93 4199.45,1921.93 4199.45,1913.46 4190.99,1913.46 4190.99,1904.99 4182.52,1904.99 4182.52,1896.53 4174.05,1896.53 4174.05,1888.06 4165.59,1888.06 4165.59,1879.59 4157.12,1879.59 4157.12,1871.13 4148.65,1871.13 4148.65,1862.66 4140.19,1862.66 4140.19,1854.19 4131.72,1854.19 4131.72,1845.73 4123.25,1845.73 4123.25,1837.26 4114.79,1837.26 4114.79,1828.79 4106.32,1828.79 4106.32,1820.33 4097.85,1820.33 4097.85,1811.86 4089.39,1811.86 4089.39,1803.39 4080.92,1803.39 4080.92,1794.93 4072.45,1794.93 4072.45,1786.46 4063.99,1786.46 4063.99,1777.99 4055.52,1777.99 4055.52,1769.53 4047.05,1769.53 4047.05,1761.06 4038.59,1761.06 4038.59,1752.59 4030.12,1752.59 4030.12,1744.13 4021.65,1744.13 4021.65,1735.66 4013.19,1735.66 4013.19,1727.19 4004.72,1727.19 4004.72,1718.73 3996.25,1718.73 3996.25,1710.26 3987.79,1710.26 3987.79,1701.79 3979.32,1701.79 3979.32,1693.33 3970.85,1693.33 3970.85,1684.86 3962.39,1684.86 3962.39,1676.39 3953.92,1676.39 3953.92,1667.93 3945.45,1667.93 3945.45,1659.46 3936.99,1659.46 3936.99,1650.99 3928.52,1650.99 3928.52,1642.53 3920.05,1642.53 3920.05,1634.06 3911.59,1634.06 3911.59,1625.6 3903.12,1625.6 3903.12,1617.13 3894.65,1617.13 3894.65,1608.66 3886.19,1608.66 3886.19,1600.2 3877.72,1600.2 3877.72,1591.73 3869.25,1591.73 3869.25,1583.26 3860.79,1583.26 3860.79,1574.8 3852.32,1574.8 3852.32,1566.33 3843.85,1566.33 3843.85,1557.86 3835.39,1557.86 3835.39,1549.4 3826.92,1549.4 3826.92,1540.93 3818.45,1540.93 3818.45,1532.46 3809.99,1532.46 3809.99,1524 3801.52,1524 3801.52,1515.53 3793.06,1515.53 3793.06,1507.06 3784.59,1507.06 3784.59,1498.6 3776.12,1498.6 3776.12,1490.13 3767.66,1490.13 3767.66,1481.66 3759.19,1481.66 3759.19,1473.2 3750.72,1473.2 3750.72,1464.73 3742.26,1464.73 3742.26,1456.26 3733.79,1456.26 3733.79,1447.8 3725.32,1447.8 3725.32,1439.33 3716.86,1439.33 3716.86,1430.86 3708.39,1430.86 3708.39,1422.4 3699.92,1422.4 3699.92,1413.93 3691.46,1413.93 3691.46,1405.46 3682.99,1405.46 3682.99,1397 3674.52,1397 3674.52,1388.53 3666.06,1388.53 3666.06,1380.06 3657.59,1380.06 3657.59,1371.6 3649.12,1371.6 3649.12,1363.13 3640.66,1363.13 3640.66,1354.66 3632.19,1354.66 3632.19,1346.2 3623.72,1346.2 3623.72,1337.73 3615.26,1337.73 3615.26,1329.26 3606.79,1329.26 3606.79,1320.8 3598.32,1320.8 3598.32,1312.33 3589.86,1312.33 3589.86,1303.86 3581.39,1303.86 3581.39,1295.4 3572.92,1295.4 3572.92,1286.93 3564.46,1286.93 3564.46,1278.46 3555.99,1278.46 3555.99,1270 3547.52,1270 3547.52,1261.53 3539.06,1261.53 3539.06,1253.06 3530.59,1253.06 3530.59,1244.6 3522.12,1244.6 3522.12,1236.13 3513.66,1236.13 3513.66,1227.66 3505.19,1227.66 3505.19,1219.2 3496.72,1219.2 3496.72,1210.73 3488.26,1210.73 3488.26,1202.26 3479.79,1202.26 3479.79,1193.8 3471.32,1193.8 3471.32,1185.33 3462.86,1185.33 3462.86,1176.86 3454.39,1176.86 3454.39,1168.4 3445.92,1168.4 3445.92,1159.93 3437.46,1159.93 3437.46,1151.46 3428.99,1151.46 3428.99,1143 3420.52,1143 3420.52,1134.53 3412.06,1134.53 3412.06,1126.06 3403.59,1126.06 3403.59,1117.6 3395.12,1117.6 3395.12,1109.13 3386.66,1109.13 3386.66,1100.66 3378.19,1100.66 3378.19,1092.2 3369.72,1092.2 3369.72,1083.73 3361.26,1083.73 3361.26,1075.26 3352.79,1075.26 3352.79,1066.8 3344.32,1066.8 3344.32,1058.33 3335.86,1058.33 3335.86,1049.86 3327.39,1049.86 3327.39,1041.4 3318.92,1041.4 3318.92,1032.93 3310.46,1032.93 3310.46,1024.46 3301.99,1024.46 3301.99,1016 3293.52,1016 3293.52,1007.53 3285.06,1007.53 3285.06,999.06 3276.59,999.06 3276.59,990.6 3268.12,990.6 3268.12,982.13 3259.66,982.13 3259.66,973.66 3251.19,973.66 3251.19,965.2 3242.72,965.2 3242.72,956.73 3234.26,956.73 3234.26,948.26 3225.79,948.26 3225.79,939.8 3217.32,939.8 3217.32,931.33 3208.86,931.33 3208.86,922.86 3200.39,922.86 3200.39,914.4 3191.92,914.4 3191.92,905.93 3183.46,905.93 3183.46,897.46 3174.99,897.46 3174.99,889 3166.52,889 3166.52,880.53 3158.06,880.53 3158.06,872.06 3149.59,872.06 3149.59,863.6 3141.12,863.6 3141.12,855.13 3132.66,855.13 3132.66,846.66 3124.19,846.66 3124.19,838.2 3115.72,838.2 3115.72,829.73 3107.26,829.73 3107.26,821.26 3098.79,821.26 3098.79,812.8 3090.32,812.8 3090.32,804.33 3081.86,804.33 3081.86,795.86 3073.39,795.86 3073.39,787.4 3064.92,787.4 3064.92,778.93 3056.46,778.93 3056.46,770.46 3047.99,770.46 3047.99,762 3039.52,762 3039.52,753.53 3031.06,753.53 3031.06,745.06 3022.59,745.06 3022.59,736.6 3014.12,736.6 3014.12,728.13 3005.66,728.13 3005.66,719.66 2997.19,719.66 2997.19,711.2 2988.72,711.2 2988.72,702.73 2980.26,702.73 2980.26,694.26 2971.79,694.26 2971.79,685.8 2963.32,685.8 2963.32,677.33 2954.86,677.33 2954.86,668.86 2946.39,668.86 2946.39,660.4 2937.92,660.4 2937.92,651.93 2929.46,651.93 2929.46,643.46 2920.99,643.46 2920.99,635 2912.52,635 2912.52,626.53 2904.06,626.53 2904.06,618.06 2895.59,618.06 2895.59,609.6 2887.12,609.6 2887.12,601.13 2878.66,601.13 2878.66,592.66 2870.19,592.66 2870.19,584.2 2861.72,584.2 2861.72,575.73 2853.26,575.73 2853.26,567.26 2836.32,567.26 "/>
   <polygon class="fil5" points="3251.19,2302.93 3259.66,2302.93 3259.66,2311.39 3268.12,2311.39 3268.12,2319.86 3276.59,2319.86 3276.59,2328.33 3285.06,2328.33 3285.06,2336.79 3293.52,2336.79 3293.52,2345.26 3301.99,2345.26 3301.99,2353.73 3310.46,2353.73 3310.46,2362.19 3318.92,2362.19 3318.92,2370.66 3327.39,2370.66 3327.39,2379.13 3335.86,2379.13 3335.86,2387.59 3344.32,2387.59 3344.32,2396.06 3352.79,2396.06 3352.79,2404.53 3361.26,2404.53 3361.26,2412.99 3369.72,2412.99 3369.72,2421.46 3378.19,2421.46 3378.19,2429.93 3386.66,2429.93 3386.66,2438.39 3395.12,2438.39 3395.12,2446.86 3403.59,2446.86 3403.59,2463.79 3420.52,2463.79 3420.52,2455.33 3428.99,2455.33 3428.99,2446.86 3437.46,2446.86 3437.46,2438.39 3445.92,2438.39 3445.92,2429.93 3454.39,2429.93 3454.39,2421.46 3462.86,2421.46 3462.86,2412.99 3471.32,2412.99 3471.32,2404.53 3479.79,2404.53 3479.79,2396.06 3488.26,2396.06 3488.26,2387.59 3496.72,2387.59 3496.72,2379.13 3505.19,2379.13 3505.19,2370.66 3513.66,2370.66 3513.66,2362.19 3522.12,2362.19 3522.12,2353.73 3530.59,2353.73 3530.59,2345.26 3539.06,2345.26 3539.06,2336.79 3547.52,2336.79 3547.52,2328.33 3555.99,2328.33 3555.99,2319.86 3564.46,2319.86 3564.46,2311.39 3572.92,2311.39 3572.92,2302.93 3581.39,2302.93 3581.39,2294.46 3589.86,2294.46 3589.86,2285.99 3598.32,2285.99 3598.32,2260.59 3589.86,2260.59 3589.86,2252.13 3581.39,2252.13 3581.39,2243.66 3572.92,2243.66 3572.92,2235.19 3564.46,2235.19 3564.46,2226.73 3555.99,2226.73 3555.99,2218.26 3547.52,2218.26 3547.52,2209.79 3539.06,2209.79 3539.06,2201.33 3530.59,2201.33 3530.59,2192.86 3522.12,2192.86 3522.12,2184.39 3513.66,2184.39 3513.66,2175.93 3505.19,2175.93 3505.19,2167.46 3496.72,2167.46 3496.72,2158.99 3488.26,2158.99 3488.26,2150.53 3479.79,2150.53 3479.79,2142.06 3471.32,2142.06 3471.32,2133.59 3462.86,2133.59 3462.86,2125.13 3454.39,2125.13 3454.39,2116.66 3445.92,2116.66 3445.92,2108.19 3437.46,2108.19 3437.46,2099.73 3428.99,2099.73 3428.99,2091.26 3420.52,2091.26 3420.52,2082.79 3412.06,2082.79 3412.06,2074.33 3403.59,2074.33 3403.59,2065.86 3395.12,2065.86 3395.12,2057.39 3386.66,2057.39 3386.66,2048.93 3378.19,2048.93 3378.19,2040.46 3369.72,2040.46 3369.72,2031.99 3361.26,2031.99 3361.26,2023.53 3352.79,2023.53 3352.79,2015.06 3344.32,2015.06 3344.32,2006.59 3335.86,2006.59 3335.86,1998.13 3327.39,1998.13 3327.39,1989.66 3318.92,1989.66 3318.92,1981.19 3310.46,1981.19 3310.46,1972.73 3301.99,1972.73 3301.99,1964.26 3293.52,1964.26 3293.52,1955.79 3285.06,1955.79 3285.06,1947.33 3276.59,1947.33 3276.59,1938.86 3268.12,1938.86 3268.12,1930.39 3259.66,1930.39 3259.66,1921.93 3251.19,1921.93 3251.19,1913.46 3242.72,1913.46 3242.72,1904.99 3234.26,1904.99 3234.26,1896.53 3225.79,1896.53 3225.79,1888.06 3217.32,1888.06 3217.32,1879.59 3208.86,1879.59 3208.86,1871.13 3200.39,1871.13 3200.39,1862.66 3191.92,1862.66 3191.92,1854.19 3183.46,1854.19 3183.46,1845.73 3174.99,1845.73 3174.99,1837.26 3166.52,1837.26 3166.52,1828.79 3158.06,1828.79 3158.06,1820.33 3149.59,1820.33 3149.59,1811.86 3141.12,1811.86 3141.12,1803.39 3132.66,1803.39 3132.66,1794.93 3124.19,1794.93 3124.19,1786.46 3115.72,1786.46 3115.72,1777.99 3107.26,1777.99 3107.26,1769.53 3098.79,1769.53 3098.79,1761.06 3090.32,1761.06 3090.32,1752.59 3081.86,1752.59 3081.86,1744.13 3073.39,1744.13 3073.39,1735.66 3064.92,1735.66 3064.92,1727.19 3056.46,1727.19 3056.46,1718.73 3047.99,1718.73 3047.99,1710.26 3039.52,1710.26 3039.52,1701.79 3031.06,1701.79 3031.06,1693.33 3022.59,1693.33 3022.59,1684.86 3014.12,1684.86 3014.12,1676.39 3005.66,1676.39 3005.66,1667.93 2997.19,1667.93 2997.19,1659.46 2988.72,1659.46 2988.72,1650.99 2980.26,1650.99 2980.26,1642.53 2971.79,1642.53 2971.79,1634.06 2963.32,1634.06 2963.32,1625.6 2954.86,1625.6 2954.86,1617.13 2946.39,1617.13 2946.39,1608.66 2937.92,1608.66 2937.92,1600.2 2929.46,1600.2 2929.46,1591.73 2920.99,1591.73 2920.99,1583.26 2912.52,1583.26 2912.52,1574.8 2904.06,1574.8 2904.06,1566.33 2895.59,1566.33 2895.59,1557.86 2887.12,1557.86 2887.12,1549.4 2878.66,1549.4 2878.66,1540.93 2870.19,1540.93 2870.19,1532.46 2861.72,1532.46 2861.72,1524 2853.26,1524 2853.26,1515.53 2836.32,1515.53 2836.32,1498.6 2827.86,1498.6 2827.86,1490.13 2819.39,1490.13 2819.39,1481.66 2810.92,1481.66 2810.92,1473.2 2802.46,1473.2 2802.46,1464.73 2793.99,1464.73 2793.99,1456.26 2785.52,1456.26 2785.52,1447.8 2777.06,1447.8 2777.06,1439.33 2768.59,1439.33 2768.59,1430.86 2760.12,1430.86 2760.12,1422.4 2751.66,1422.4 2751.66,1413.93 2743.19,1413.93 2743.19,1405.46 2734.72,1405.46 2734.72,1397 2726.26,1397 2726.26,1388.53 2717.79,1388.53 2717.79,1380.06 2709.33,1380.06 2709.33,1371.6 2700.86,1371.6 2700.86,1363.13 2692.39,1363.13 2692.39,1354.66 2683.93,1354.66 2683.93,1346.2 2675.46,1346.2 2675.46,1337.73 2658.53,1337.73 2658.53,1320.8 2650.06,1320.8 2650.06,1312.33 2641.59,1312.33 2641.59,1303.86 2633.13,1303.86 2633.13,1295.4 2624.66,1295.4 2624.66,1286.93 2616.19,1286.93 2616.19,1278.46 2607.73,1278.46 2607.73,1270 2599.26,1270 2599.26,1261.53 2590.79,1261.53 2590.79,1253.06 2582.33,1253.06 2582.33,1244.6 2573.86,1244.6 2573.86,1236.13 2565.39,1236.13 2565.39,1227.66 2556.93,1227.66 2556.93,1219.2 2548.46,1219.2 2548.46,1210.73 2539.99,1210.73 2539.99,1202.26 2531.53,1202.26 2531.53,1193.8 2523.06,1193.8 2523.06,1185.33 2514.59,1185.33 2514.59,1176.86 2506.13,1176.86 2506.13,1168.4 2497.66,1168.4 2497.66,1159.93 2489.19,1159.93 2489.19,1151.46 2480.73,1151.46 2480.73,1143 2472.26,1143 2472.26,1134.53 2463.79,1134.53 2463.79,1126.06 2455.33,1126.06 2455.33,1117.6 2446.86,1117.6 2446.86,1109.13 2438.39,1109.13 2438.39,1100.66 2429.93,1100.66 2429.93,1092.2 2421.46,1092.2 2421.46,1083.73 2412.99,1083.73 2412.99,1075.26 2404.53,1075.26 2404.53,1066.8 2396.06,1066.8 2396.06,1058.33 2387.59,1058.33 2387.59,1049.86 2379.13,1049.86 2379.13,1032.93 2362.19,1032.93 2362.19,1024.46 2353.73,1024.46 2353.73,1016 2345.26,1016 2345.26,1007.53 2336.79,1007.53 2336.79,999.06 2328.33,999.06 2328.33,990.6 2319.86,990.6 2319.86,982.13 2311.39,982.13 2311.39,973.66 2302.93,973.66 2302.93,965.2 2294.46,965.2 2294.46,956.73 2285.99,956.73 2285.99,948.26 2277.53,948.26 2277.53,939.8 2269.06,939.8 2269.06,931.33 2260.59,931.33 2260.59,922.86 2252.13,922.86 2252.13,914.4 2243.66,914.4 2243.66,905.93 2235.19,905.93 2235.19,897.46 2226.73,897.46 2226.73,889 2218.26,889 2218.26,880.53 2209.79,880.53 2209.79,872.06 2201.33,872.06 2201.33,863.6 2192.86,863.6 2192.86,855.13 2184.39,855.13 2184.39,846.66 2175.93,846.66 2175.93,838.2 2158.99,838.2 2158.99,846.66 2150.53,846.66 2150.53,855.13 2142.06,855.13 2142.06,863.6 2133.59,863.6 2133.59,872.06 2125.13,872.06 2125.13,880.53 2116.66,880.53 2116.66,889 2108.19,889 2108.19,897.46 2099.73,897.46 2099.73,905.93 2091.26,905.93 2091.26,914.4 2082.79,914.4 2082.79,922.86 2074.33,922.86 2074.33,931.33 2065.86,931.33 2065.86,939.8 2057.39,939.8 2057.39,948.26 2048.93,948.26 2048.93,956.73 2040.46,956.73 2040.46,965.2 2031.99,965.2 2031.99,973.66 2023.53,973.66 2023.53,982.13 2015.06,982.13 2015.06,990.6 2006.59,990.6 2006.59,999.06 1998.13,999.06 1998.13,1007.53 1989.66,1007.53 1989.66,1016 1981.19,1016 1981.19,1024.46 1972.73,1024.46 1972.73,1032.93 1964.26,1032.93 1964.26,1041.4 1955.79,1041.4 1955.79,1049.86 1947.33,1049.86 1947.33,1058.33 1938.86,1058.33 1938.86,1066.8 1930.39,1066.8 1930.39,1075.26 1921.93,1075.26 1921.93,1083.73 1913.46,1083.73 1913.46,1092.2 1904.99,1092.2 1904.99,1100.66 1896.53,1100.66 1896.53,1109.13 1888.06,1109.13 1888.06,1117.6 1879.59,1117.6 1879.59,1126.06 1871.13,1126.06 1871.13,1134.53 1862.66,1134.53 1862.66,1143 1854.19,1143 1854.19,1151.46 1845.73,1151.46 1845.73,1159.93 1837.26,1159.93 1837.26,1168.4 1828.79,1168.4 1828.79,1176.86 1820.33,1176.86 1820.33,1185.33 1811.86,1185.33 1811.86,1193.8 1803.39,1193.8 1803.39,1202.26 1794.93,1202.26 1794.93,1210.73 1786.46,1210.73 1786.46,1219.2 1777.99,1219.2 1777.99,1227.66 1769.53,1227.66 1769.53,1236.13 1761.06,1236.13 1761.06,1244.6 1752.59,1244.6 1752.59,1253.06 1744.13,1253.06 1744.13,1261.53 1735.66,1261.53 1735.66,1270 1727.19,1270 1727.19,1278.46 1718.73,1278.46 1718.73,1286.93 1710.26,1286.93 1710.26,1295.4 1701.79,1295.4 1701.79,1320.8 1710.26,1320.8 1710.26,1329.26 1718.73,1329.26 1718.73,1337.73 1727.19,1337.73 1727.19,1346.2 1735.66,1346.2 1735.66,1354.66 1744.13,1354.66 1744.13,1363.13 1752.59,1363.13 1752.59,1371.6 1761.06,1371.6 1761.06,1380.06 1769.53,1380.06 1769.53,1388.53 1777.99,1388.53 1777.99,1397 1786.46,1397 1786.46,1405.46 1794.93,1405.46 1794.93,1413.93 1803.39,1413.93 1803.39,1422.4 1811.86,1422.4 1811.86,1430.86 1820.33,1430.86 1820.33,1439.33 1828.79,1439.33 1828.79,1447.8 1837.26,1447.8 1837.26,1456.26 1845.73,1456.26 1845.73,1464.73 1854.19,1464.73 1854.19,1473.2 1862.66,1473.2 1862.66,1481.66 1871.13,1481.66 1871.13,1490.13 1879.59,1490.13 1879.59,1498.6 1896.53,1498.6 1896.53,1490.13 1904.99,1490.13 1904.99,1481.66 1913.46,1481.66 1913.46,1473.2 1921.93,1473.2 1921.93,1464.73 1930.39,1464.73 1930.39,1456.26 1938.86,1456.26 1938.86,1447.8 1947.33,1447.8 1947.33,1439.33 1955.79,1439.33 1955.79,1430.86 1964.26,1430.86 1964.26,1422.4 1972.73,1422.4 1972.73,1413.93 1981.19,1413.93 1981.19,1405.46 1989.66,1405.46 1989.66,1397 1998.13,1397 1998.13,1388.53 2006.59,1388.53 2006.59,1380.06 2015.06,1380.06 2015.06,1371.6 2023.53,1371.6 2023.53,1363.13 2031.99,1363.13 2031.99,1354.66 2040.46,1354.66 2040.46,1346.2 2048.93,1346.2 2048.93,1337.73 2057.39,1337.73 2057.39,1329.26 2065.86,1329.26 2065.86,1320.8 2074.33,1320.8 2074.33,1312.33 2082.79,1312.33 2082.79,1303.86 2091.26,1303.86 2091.26,1295.4 2099.73,1295.4 2099.73,1286.93 2108.19,1286.93 2108.19,1278.46 2116.66,1278.46 2116.66,1270 2125.13,1270 2125.13,1261.53 2133.59,1261.53 2133.59,1253.06 2142.06,1253.06 2142.06,1244.6 2150.53,1244.6 2150.53,1227.66 2184.39,1227.66 2184.39,1236.13 2192.86,1236.13 2192.86,1244.6 2201.33,1244.6 2201.33,1253.06 2209.79,1253.06 2209.79,1261.53 2218.26,1261.53 2218.26,1270 2226.73,1270 2226.73,1278.46 2235.19,1278.46 2235.19,1286.93 2243.66,1286.93 2243.66,1295.4 2252.13,1295.4 2252.13,1303.86 2260.59,1303.86 2260.59,1312.33 2269.06,1312.33 2269.06,1320.8 2277.53,1320.8 2277.53,1329.26 2285.99,1329.26 2285.99,1337.73 2294.46,1337.73 2294.46,1346.2 2302.93,1346.2 2302.93,1354.66 2311.39,1354.66 2311.39,1363.13 2319.86,1363.13 2319.86,1371.6 2328.33,1371.6 2328.33,1380.06 2336.79,1380.06 2336.79,1388.53 2345.26,1388.53 2345.26,1397 2353.73,1397 2353.73,1405.46 2362.19,1405.46 2362.19,1413.93 2370.66,1413.93 2370.66,1422.4 2379.13,1422.4 2379.13,1430.86 2387.59,1430.86 2387.59,1439.33 2396.06,1439.33 2396.06,1447.8 2404.53,1447.8 2404.53,1456.26 2412.99,1456.26 2412.99,1464.73 2421.46,1464.73 2421.46,1473.2 2429.93,1473.2 2429.93,1481.66 2438.39,1481.66 2438.39,1490.13 2446.86,1490.13 2446.86,1498.6 2455.33,1498.6 2455.33,1507.06 2463.79,1507.06 2463.79,1515.53 2472.26,1515.53 2472.26,1524 2480.73,1524 2480.73,1532.46 2489.19,1532.46 2489.19,1540.93 2497.66,1540.93 2497.66,1549.4 2506.13,1549.4 2506.13,1557.86 2514.59,1557.86 2514.59,1566.33 2523.06,1566.33 2523.06,1574.8 2531.53,1574.8 2531.53,1583.26 2539.99,1583.26 2539.99,1591.73 2548.46,1591.73 2548.46,1600.2 2556.93,1600.2 2556.93,1608.66 2565.39,1608.66 2565.39,1617.13 2573.86,1617.13 2573.86,1625.6 2582.33,1625.6 2582.33,1634.06 2590.79,1634.06 2590.79,1642.53 2599.26,1642.53 2599.26,1650.99 2607.73,1650.99 2607.73,1659.46 2616.19,1659.46 2616.19,1667.93 2624.66,1667.93 2624.66,1676.39 2633.13,1676.39 2633.13,1684.86 2641.59,1684.86 2641.59,1693.33 2650.06,1693.33 2650.06,1701.79 2658.53,1701.79 2658.53,1710.26 2666.99,1710.26 2666.99,1718.73 2675.46,1718.73 2675.46,1727.19 2683.93,1727.19 2683.93,1735.66 2692.39,1735.66 2692.39,1744.13 2700.86,1744.13 2700.86,1752.59 2709.33,1752.59 2709.33,1761.06 2717.79,1761.06 2717.79,1769.53 2726.26,1769.53 2726.26,1777.99 2734.72,1777.99 2734.72,1786.46 2743.19,1786.46 2743.19,1794.93 2751.66,1794.93 2751.66,1803.39 2760.12,1803.39 2760.12,1811.86 2768.59,1811.86 2768.59,1820.33 2777.06,1820.33 2777.06,1828.79 2785.52,1828.79 2785.52,1837.26 2793.99,1837.26 2793.99,1845.73 2802.46,1845.73 2802.46,1854.19 2810.92,1854.19 2810.92,1862.66 2819.39,1862.66 2819.39,1871.13 2827.86,1871.13 2827.86,1879.59 2836.32,1879.59 2836.32,1888.06 2844.79,1888.06 2844.79,1896.53 2853.26,1896.53 2853.26,1904.99 2861.72,1904.99 2861.72,1913.46 2870.19,1913.46 2870.19,1921.93 2878.66,1921.93 2878.66,1930.39 2887.12,1930.39 2887.12,1938.86 2895.59,1938.86 2895.59,1947.33 2904.06,1947.33 2904.06,1955.79 2912.52,1955.79 2912.52,1964.26 2920.99,1964.26 2920.99,1972.73 2929.46,1972.73 2929.46,1981.19 2937.92,1981.19 2937.92,1989.66 2946.39,1989.66 2946.39,1998.13 2954.86,1998.13 2954.86,2006.59 2963.32,2006.59 2963.32,2015.06 2971.79,2015.06 2971.79,2023.53 2980.26,2023.53 2980.26,2031.99 2988.72,2031.99 2988.72,2040.46 2997.19,2040.46 2997.19,2048.93 3005.66,2048.93 3005.66,2057.39 3014.12,2057.39 3014.12,2065.86 3022.59,2065.86 3022.59,2074.33 3031.06,2074.33 3031.06,2082.79 3039.52,2082.79 3039.52,2091.26 3047.99,2091.26 3047.99,2099.73 3056.46,2099.73 3056.46,2108.19 3064.92,2108.19 3064.92,2116.66 3073.39,2116.66 3073.39,2125.13 3081.86,2125.13 3081.86,2133.59 3090.32,2133.59 3090.32,2142.06 3098.79,2142.06 3098.79,2150.53 3107.26,2150.53 3107.26,2158.99 3115.72,2158.99 3115.72,2167.46 3124.19,2167.46 3124.19,2175.93 3132.66,2175.93 3132.66,2184.39 3141.12,2184.39 3141.12,2192.86 3149.59,2192.86 3149.59,2201.33 3158.06,2201.33 3158.06,2209.79 3166.52,2209.79 3166.52,2218.26 3174.99,2218.26 3174.99,2226.73 3183.46,2226.73 3183.46,2235.19 3191.92,2235.19 3191.92,2243.66 3200.39,2243.66 3200.39,2252.13 3208.86,2252.13 3208.86,2260.59 3217.32,2260.59 3217.32,2277.53 3234.26,2277.53 3234.26,2285.99 3242.72,2285.99 3242.72,2294.46 3251.19,2294.46 "/>
   <polygon class="fil6" points="2302.93,3657.59 2302.93,2709.33 1625.6,2709.33 1625.6,3657.59 "/>
   <polygon class="fil4" points="3522.12,4063.99 4199.45,4063.99 4199.45,3251.19 3251.19,3251.19 3251.19,3522.12 3522.12,3522.12 "/>
   <polygon class="fil7" points="2573.86,2582.33 2582.33,2582.33 2582.33,2590.79 2590.79,2590.79 2590.79,2599.26 2599.26,2599.26 2599.26,2607.73 2607.73,2607.73 2607.73,2616.19 2616.19,2616.19 2616.19,2624.66 2624.66,2624.66 2624.66,2633.13 2633.13,2633.13 2633.13,2641.59 2641.59,2641.59 2641.59,2650.06 2650.06,2650.06 2650.06,2658.53 2658.53,2658.53 2658.53,2666.99 2666.99,2666.99 2666.99,2675.46 2675.46,2675.46 2675.46,2683.93 2683.93,2683.93 2683.93,2692.39 2692.39,2692.39 2692.39,2700.86 2700.86,2700.86 2700.86,2709.33 2709.33,2709.33 2709.33,2717.79 2717.79,2717.79 2717.79,2726.26 2726.26,2726.26 2726.26,2734.72 2743.19,2734.72 2743.19,2726.26 2751.66,2726.26 2751.66,2717.79 2760.12,2717.79 2760.12,2709.33 2768.59,2709.33 2768.59,2700.86 2777.06,2700.86 2777.06,2692.39 2785.52,2692.39 2785.52,2683.93 2793.99,2683.93 2793.99,2675.46 2802.46,2675.46 2802.46,2666.99 2810.92,2666.99 2810.92,2658.53 2819.39,2658.53 2819.39,2650.06 2827.86,2650.06 2827.86,2641.59 2836.32,2641.59 2836.32,2633.13 2844.79,2633.13 2844.79,2624.66 2853.26,2624.66 2853.26,2616.19 2861.72,2616.19 2861.72,2607.73 2870.19,2607.73 2870.19,2599.26 2878.66,2599.26 2878.66,2590.79 2887.12,2590.79 2887.12,2582.33 2895.59,2582.33 2895.59,2573.86 2904.06,2573.86 2904.06,2565.39 2912.52,2565.39 2912.52,2556.93 2920.99,2556.93 2920.99,2548.46 2929.46,2548.46 2929.46,2539.99 2920.99,2539.99 2920.99,2531.53 2912.52,2531.53 2912.52,2523.06 2904.06,2523.06 2904.06,2514.59 2895.59,2514.59 2895.59,2506.13 2887.12,2506.13 2887.12,2497.66 2878.66,2497.66 2878.66,2489.19 2870.19,2489.19 2870.19,2480.73 2861.72,2480.73 2861.72,2472.26 2853.26,2472.26 2853.26,2463.79 2844.79,2463.79 2844.79,2455.33 2836.32,2455.33 2836.32,2446.86 2827.86,2446.86 2827.86,2438.39 2819.39,2438.39 2819.39,2429.93 2810.92,2429.93 2810.92,2421.46 2802.46,2421.46 2802.46,2412.99 2793.99,2412.99 2793.99,2404.53 2785.52,2404.53 2785.52,2396.06 2777.06,2396.06 2777.06,2387.59 2768.59,2387.59 2768.59,2379.13 2760.12,2379.13 2760.12,2370.66 2751.66,2370.66 2751.66,2362.19 2743.19,2362.19 2743.19,2353.73 2734.72,2353.73 2734.72,2345.26 2726.26,2345.26 2726.26,2336.79 2717.79,2336.79 2717.79,2328.33 2709.33,2328.33 2709.33,2319.86 2700.86,2319.86 2700.86,2311.39 2692.39,2311.39 2692.39,2302.93 2683.93,2302.93 2683.93,2294.46 2675.46,2294.46 2675.46,2285.99 2666.99,2285.99 2666.99,2277.53 2658.53,2277.53 2658.53,2269.06 2650.06,2269.06 2650.06,2260.59 2641.59,2260.59 2641.59,2252.13 2633.13,2252.13 2633.13,2243.66 2624.66,2243.66 2624.66,2235.19 2616.19,2235.19 2616.19,2226.73 2607.73,2226.73 2607.73,2218.26 2599.26,2218.26 2599.26,2209.79 2590.79,2209.79 2590.79,2201.33 2582.33,2201.33 2582.33,2192.86 2573.86,2192.86 2573.86,2184.39 2565.39,2184.39 2565.39,2175.93 2556.93,2175.93 2556.93,2167.46 2548.46,2167.46 2548.46,2158.99 2539.99,2158.99 2539.99,2150.53 2531.53,2150.53 2531.53,2142.06 2523.06,2142.06 2523.06,2133.59 2514.59,2133.59 2514.59,2125.13 2506.13,2125.13 2506.13,2116.66 2497.66,2116.66 2497.66,2108.19 2489.19,2108.19 2489.19,2099.73 2480.73,2099.73 2480.73,2091.26 2472.26,2091.26 2472.26,2082.79 2463.79,2082.79 2463.79,2074.33 2455.33,2074.33 2455.33,2065.86 2446.86,2065.86 2446.86,2057.39 2438.39,2057.39 2438.39,2048.93 2429.93,2048.93 2429.93,2040.46 2421.46,2040.46 2421.46,2031.99 2412.99,2031.99 2412.99,2023.53 2404.53,2023.53 2404.53,2015.06 2396.06,2015.06 2396.06,2006.59 2387.59,2006.59 2387.59,1998.13 2379.13,1998.13 2379.13,1989.66 2370.66,1989.66 2370.66,1981.19 2362.19,1981.19 2362.19,1972.73 2353.73,1972.73 2353.73,1964.26 2345.26,1964.26 2345.26,1955.79 2336.79,1955.79 2336.79,1947.33 2328.33,1947.33 2328.33,1938.86 2319.86,1938.86 2319.86,1930.39 2311.39,1930.39 2311.39,1921.93 2302.93,1921.93 2302.93,1913.46 2294.46,1913.46 2294.46,1904.99 2285.99,1904.99 2285.99,1896.53 2277.53,1896.53 2277.53,1888.06 2269.06,1888.06 2269.06,1879.59 2260.59,1879.59 2260.59,1871.13 2252.13,1871.13 2252.13,1862.66 2243.66,1862.66 2243.66,1854.19 2235.19,1854.19 2235.19,1845.73 2226.73,1845.73 2226.73,1837.26 2218.26,1837.26 2218.26,1828.79 2209.79,1828.79 2209.79,1820.33 2201.33,1820.33 2201.33,1811.86 2192.86,1811.86 2192.86,1803.39 2184.39,1803.39 2184.39,1794.93 2175.93,1794.93 2175.93,1786.46 2167.46,1786.46 2167.46,1777.99 2158.99,1777.99 2158.99,1769.53 2150.53,1769.53 2150.53,1761.06 2142.06,1761.06 2142.06,1752.59 2133.59,1752.59 2133.59,1744.13 2125.13,1744.13 2125.13,1735.66 2116.66,1735.66 2116.66,1727.19 2108.19,1727.19 2108.19,1718.73 2099.73,1718.73 2099.73,1710.26 2091.26,1710.26 2091.26,1701.79 2082.79,1701.79 2082.79,1693.33 2074.33,1693.33 2074.33,1684.86 2065.86,1684.86 2065.86,1676.39 2057.39,1676.39 2057.39,1667.93 2048.93,1667.93 2048.93,1659.46 2040.46,1659.46 2040.46,1650.99 2031.99,1650.99 2031.99,1642.53 2023.53,1642.53 2023.53,1634.06 2015.06,1634.06 2015.06,1625.6 2006.59,1625.6 2006.59,1617.13 1998.13,1617.13 1998.13,1608.66 1989.66,1608.66 1989.66,1600.2 1981.19,1600.2 1981.19,1591.73 1972.73,1591.73 1972.73,1583.26 1964.26,1583.26 1964.26,1574.8 1955.79,1574.8 1955.79,1566.33 1947.33,1566.33 1947.33,1557.86 1938.86,1557.86 1938.86,1549.4 1930.39,1549.4 1930.39,1540.93 1921.93,1540.93 1921.93,1532.46 1913.46,1532.46 1913.46,1524 1904.99,1524 1904.99,1515.53 1896.53,1515.53 1896.53,1507.06 1888.06,1507.06 1888.06,1498.6 1879.59,1498.6 1879.59,1490.13 1871.13,1490.13 1871.13,1481.66 1862.66,1481.66 1862.66,1473.2 1854.19,1473.2 1854.19,1464.73 1845.73,1464.73 1845.73,1456.26 1837.26,1456.26 1837.26,1447.8 1828.79,1447.8 1828.79,1439.33 1820.33,1439.33 1820.33,1430.86 1811.86,1430.86 1811.86,1422.4 1803.39,1422.4 1803.39,1413.93 1794.93,1413.93 1794.93,1405.46 1786.46,1405.46 1786.46,1397 1777.99,1397 1777.99,1388.53 1769.53,1388.53 1769.53,1380.06 1761.06,1380.06 1761.06,1371.6 1752.59,1371.6 1752.59,1363.13 1744.13,1363.13 1744.13,1354.66 1735.66,1354.66 1735.66,1346.2 1727.19,1346.2 1727.19,1337.73 1718.73,1337.73 1718.73,1329.26 1710.26,1329.26 1710.26,1320.8 1701.79,1320.8 1701.79,1303.86 1684.86,1303.86 1684.86,1295.4 1676.39,1295.4 1676.39,1286.93 1667.93,1286.93 1667.93,1278.46 1659.46,1278.46 1659.46,1270 1650.99,1270 1650.99,1261.53 1642.53,1261.53 1642.53,1253.06 1634.06,1253.06 1634.06,1244.6 1625.6,1244.6 1625.6,1236.13 1617.13,1236.13 1617.13,1227.66 1608.66,1227.66 1608.66,1219.2 1600.2,1219.2 1600.2,1210.73 1591.73,1210.73 1591.73,1202.26 1583.26,1202.26 1583.26,1193.8 1574.8,1193.8 1574.8,1185.33 1566.33,1185.33 1566.33,1176.86 1557.86,1176.86 1557.86,1168.4 1549.4,1168.4 1549.4,1159.93 1540.93,1159.93 1540.93,1151.46 1532.46,1151.46 1532.46,1143 1524,1143 1524,1134.53 1515.53,1134.53 1515.53,1126.06 1507.06,1126.06 1507.06,1117.6 1498.6,1117.6 1498.6,1109.13 1490.13,1109.13 1490.13,1498.6 1498.6,1498.6 1498.6,1507.06 1507.06,1507.06 1507.06,1515.53 1515.53,1515.53 1515.53,1524 1524,1524 1524,1532.46 1532.46,1532.46 1532.46,1540.93 1540.93,1540.93 1540.93,1549.4 1549.4,1549.4 1549.4,1557.86 1557.86,1557.86 1557.86,1566.33 1566.33,1566.33 1566.33,1574.8 1574.8,1574.8 1574.8,1583.26 1583.26,1583.26 1583.26,1591.73 1591.73,1591.73 1591.73,1600.2 1600.2,1600.2 1600.2,1608.66 1608.66,1608.66 1608.66,1617.13 1617.13,1617.13 1617.13,1625.6 1625.6,1625.6 1625.6,1634.06 1634.06,1634.06 1634.06,1642.53 1642.53,1642.53 1642.53,1650.99 1650.99,1650.99 1650.99,1659.46 1659.46,1659.46 1659.46,1667.93 1667.93,1667.93 1667.93,1676.39 1676.39,1676.39 1676.39,1684.86 1684.86,1684.86 1684.86,1693.33 1693.33,1693.33 1693.33,1701.79 1701.79,1701.79 1701.79,1710.26 1710.26,1710.26 1710.26,1718.73 1718.73,1718.73 1718.73,1727.19 1727.19,1727.19 1727.19,1735.66 1735.66,1735.66 1735.66,1744.13 1744.13,1744.13 1744.13,1752.59 1752.59,1752.59 1752.59,1761.06 1761.06,1761.06 1761.06,1769.53 1769.53,1769.53 1769.53,1777.99 1777.99,1777.99 1777.99,1786.46 1786.46,1786.46 1786.46,1794.93 1794.93,1794.93 1794.93,1803.39 1803.39,1803.39 1803.39,1811.86 1811.86,1811.86 1811.86,1820.33 1820.33,1820.33 1820.33,1828.79 1828.79,1828.79 1828.79,1837.26 1837.26,1837.26 1837.26,1845.73 1845.73,1845.73 1845.73,1854.19 1854.19,1854.19 1854.19,1862.66 1862.66,1862.66 1862.66,1871.13 1871.13,1871.13 1871.13,1879.59 1879.59,1879.59 1879.59,1888.06 1888.06,1888.06 1888.06,1896.53 1896.53,1896.53 1896.53,1904.99 1904.99,1904.99 1904.99,1913.46 1913.46,1913.46 1913.46,1921.93 1921.93,1921.93 1921.93,1930.39 1930.39,1930.39 1930.39,1938.86 1938.86,1938.86 1938.86,1947.33 1947.33,1947.33 1947.33,1955.79 1955.79,1955.79 1955.79,1964.26 1964.26,1964.26 1964.26,1972.73 1972.73,1972.73 1972.73,1981.19 1981.19,1981.19 1981.19,1989.66 1989.66,1989.66 1989.66,1998.13 1998.13,1998.13 1998.13,2006.59 2006.59,2006.59 2006.59,2015.06 2015.06,2015.06 2015.06,2023.53 2023.53,2023.53 2023.53,2031.99 2031.99,2031.99 2031.99,2040.46 2040.46,2040.46 2040.46,2048.93 2048.93,2048.93 2048.93,2057.39 2057.39,2057.39 2057.39,2065.86 2065.86,2065.86 2065.86,2074.33 2074.33,2074.33 2074.33,2082.79 2082.79,2082.79 2082.79,2091.26 2091.26,2091.26 2091.26,2099.73 2099.73,2099.73 2099.73,2108.19 2108.19,2108.19 2108.19,2116.66 2116.66,2116.66 2116.66,2125.13 2125.13,2125.13 2125.13,2133.59 2133.59,2133.59 2133.59,2142.06 2142.06,2142.06 2142.06,2150.53 2150.53,2150.53 2150.53,2158.99 2158.99,2158.99 2158.99,2167.46 2167.46,2167.46 2167.46,2175.93 2175.93,2175.93 2175.93,2184.39 2184.39,2184.39 2184.39,2192.86 2192.86,2192.86 2192.86,2201.33 2201.33,2201.33 2201.33,2209.79 2209.79,2209.79 2209.79,2218.26 2218.26,2218.26 2218.26,2226.73 2226.73,2226.73 2226.73,2235.19 2235.19,2235.19 2235.19,2243.66 2243.66,2243.66 2243.66,2252.13 2252.13,2252.13 2252.13,2260.59 2260.59,2260.59 2260.59,2269.06 2269.06,2269.06 2269.06,2277.53 2277.53,2277.53 2277.53,2285.99 2285.99,2285.99 2285.99,2294.46 2294.46,2294.46 2294.46,2302.93 2302.93,2302.93 2302.93,2311.39 2311.39,2311.39 2311.39,2319.86 2319.86,2319.86 2319.86,2328.33 2328.33,2328.33 2328.33,2336.79 2336.79,2336.79 2336.79,2345.26 2345.26,2345.26 2345.26,2353.73 2353.73,2353.73 2353.73,2362.19 2362.19,2362.19 2362.19,2370.66 2370.66,2370.66 2370.66,2379.13 2379.13,2379.13 2379.13,2387.59 2387.59,2387.59 2387.59,2396.06 2396.06,2396.06 2396.06,2404.53 2404.53,2404.53 2404.53,2412.99 2412.99,2412.99 2412.99,2421.46 2421.46,2421.46 2421.46,2429.93 2429.93,2429.93 2429.93,2438.39 2438.39,2438.39 2438.39,2446.86 2446.86,2446.86 2446.86,2455.33 2455.33,2455.33 2455.33,2463.79 2463.79,2463.79 2463.79,2472.26 2472.26,2472.26 2472.26,2480.73 2480.73,2480.73 2480.73,2489.19 2489.19,2489.19 2489.19,2497.66 2497.66,2497.66 2497.66,2506.13 2506.13,2506.13 2506.13,2514.59 2514.59,2514.59 2514.59,2523.06 2523.06,2523.06 2523.06,2531.53 2531.53,2531.53 2531.53,2539.99 2539.99,2539.99 2539.99,2548.46 2548.46,2548.46 2548.46,2556.93 2556.93,2556.93 2556.93,2565.39 2565.39,2565.39 2565.39,2573.86 2573.86,2573.86 "/>
   <polygon class="fil8" points="1490.13,1498.6 1490.13,1109.13 1481.66,1109.13 1481.66,1117.6 1473.2,1117.6 1473.2,1126.06 1464.73,1126.06 1464.73,1134.53 1456.26,1134.53 1456.26,1143 1447.8,1143 1447.8,1151.46 1439.33,1151.46 1439.33,1159.93 1430.86,1159.93 1430.86,1168.4 1422.4,1168.4 1422.4,1176.86 1413.93,1176.86 1413.93,1185.33 1405.46,1185.33 1405.46,1193.8 1397,1193.8 1397,1202.26 1388.53,1202.26 1388.53,1210.73 1380.06,1210.73 1380.06,1219.2 1371.6,1219.2 1371.6,1227.66 1363.13,1227.66 1363.13,1236.13 1354.66,1236.13 1354.66,1244.6 1346.2,1244.6 1346.2,1253.06 1337.73,1253.06 1337.73,1261.53 1329.26,1261.53 1329.26,1270 1320.8,1270 1320.8,1278.46 1312.33,1278.46 1312.33,1286.93 1303.86,1286.93 1303.86,1295.4 1295.4,1295.4 1295.4,1303.86 1286.93,1303.86 1286.93,1312.33 1278.46,1312.33 1278.46,1320.8 1270,1320.8 1270,1329.26 1261.53,1329.26 1261.53,1337.73 1253.06,1337.73 1253.06,1346.2 1244.6,1346.2 1244.6,1354.66 1236.13,1354.66 1236.13,1363.13 1227.66,1363.13 1227.66,1371.6 1219.2,1371.6 1219.2,1380.06 1210.73,1380.06 1210.73,1388.53 1202.26,1388.53 1202.26,1397 1193.8,1397 1193.8,1405.46 1185.33,1405.46 1185.33,1413.93 1176.86,1413.93 1176.86,1422.4 1168.4,1422.4 1168.4,1430.86 1159.93,1430.86 1159.93,1439.33 1151.46,1439.33 1151.46,1447.8 1143,1447.8 1143,1456.26 1134.53,1456.26 1134.53,1464.73 1126.06,1464.73 1126.06,1473.2 1117.6,1473.2 1117.6,1481.66 1109.13,1481.66 1109.13,1490.13 1100.66,1490.13 1100.66,1498.6 1092.2,1498.6 1092.2,1507.06 1083.73,1507.06 1083.73,1515.53 1075.26,1515.53 1075.26,1524 1066.8,1524 1066.8,1532.46 1058.33,1532.46 1058.33,1540.93 1049.86,1540.93 1049.86,1549.4 1041.4,1549.4 1041.4,1557.86 1032.93,1557.86 1032.93,1566.33 1024.46,1566.33 1024.46,1574.8 1016,1574.8 1016,1583.26 1007.53,1583.26 1007.53,1591.73 999.06,1591.73 999.06,1600.2 990.6,1600.2 990.6,1608.66 982.13,1608.66 982.13,1617.13 973.66,1617.13 973.66,1625.6 965.2,1625.6 965.2,1634.06 956.73,1634.06 956.73,1642.53 948.26,1642.53 948.26,1650.99 939.8,1650.99 939.8,1659.46 931.33,1659.46 931.33,1667.93 922.86,1667.93 922.86,1676.39 914.4,1676.39 914.4,1684.86 905.93,1684.86 905.93,1693.33 897.46,1693.33 897.46,1701.79 889,1701.79 889,1710.26 880.53,1710.26 880.53,1718.73 872.06,1718.73 872.06,1727.19 863.6,1727.19 863.6,1735.66 855.13,1735.66 855.13,1744.13 846.66,1744.13 846.66,1752.59 838.2,1752.59 838.2,1761.06 829.73,1761.06 829.73,1769.53 821.26,1769.53 821.26,1777.99 812.8,1777.99 812.8,1786.46 804.33,1786.46 804.33,1794.93 795.86,1794.93 795.86,1803.39 787.4,1803.39 787.4,1811.86 778.93,1811.86 778.93,1820.33 770.46,1820.33 770.46,1828.79 762,1828.79 762,1837.26 753.53,1837.26 753.53,1845.73 745.06,1845.73 745.06,1854.19 736.6,1854.19 736.6,1862.66 728.13,1862.66 728.13,1871.13 719.66,1871.13 719.66,1879.59 711.2,1879.59 711.2,1888.06 702.73,1888.06 702.73,1896.53 694.26,1896.53 694.26,1904.99 685.8,1904.99 685.8,1913.46 677.33,1913.46 677.33,1921.93 668.86,1921.93 668.86,1930.39 660.4,1930.39 660.4,1938.86 651.93,1938.86 651.93,1947.33 643.46,1947.33 643.46,1955.79 635,1955.79 635,1964.26 626.53,1964.26 626.53,1972.73 618.06,1972.73 618.06,1981.19 609.6,1981.19 609.6,1989.66 601.13,1989.66 601.13,1998.13 592.66,1998.13 592.66,2006.59 584.2,2006.59 584.2,2015.06 575.73,2015.06 575.73,2023.53 567.26,2023.53 567.26,2031.99 558.8,2031.99 558.8,2040.46 550.33,2040.46 550.33,2048.93 541.87,2048.93 541.87,2057.39 533.4,2057.39 533.4,2065.86 524.93,2065.86 524.93,2074.33 516.47,2074.33 516.47,2082.79 508,2082.79 508,2091.26 499.53,2091.26 499.53,2099.73 491.07,2099.73 491.07,2108.19 482.6,2108.19 482.6,2116.66 474.13,2116.66 474.13,2125.13 465.67,2125.13 465.67,2133.59 457.2,2133.59 457.2,2142.06 448.73,2142.06 448.73,2150.53 440.27,2150.53 440.27,2158.99 431.8,2158.99 431.8,2167.46 423.33,2167.46 423.33,2175.93 414.87,2175.93 414.87,2184.39 406.4,2184.39 406.4,2192.86 397.93,2192.86 397.93,2201.33 389.47,2201.33 389.47,2209.79 381,2209.79 381,2218.26 372.53,2218.26 372.53,2226.73 364.07,2226.73 364.07,2235.19 355.6,2235.19 355.6,2243.66 347.13,2243.66 347.13,2252.13 338.67,2252.13 338.67,2260.59 330.2,2260.59 330.2,2269.06 321.73,2269.06 321.73,2277.53 313.27,2277.53 313.27,2285.99 304.8,2285.99 304.8,2294.46 296.33,2294.46 296.33,2302.93 287.87,2302.93 287.87,2311.39 279.4,2311.39 279.4,2319.86 270.93,2319.86 270.93,2328.33 262.47,2328.33 262.47,2336.79 254,2336.79 254,2345.26 245.53,2345.26 245.53,2353.73 237.07,2353.73 237.07,2362.19 228.6,2362.19 228.6,2370.66 220.13,2370.66 220.13,2379.13 211.67,2379.13 211.67,2387.59 203.2,2387.59 203.2,2396.06 194.73,2396.06 194.73,2404.53 186.27,2404.53 186.27,2412.99 177.8,2412.99 177.8,2421.46 169.33,2421.46 169.33,2429.93 160.87,2429.93 160.87,2438.39 152.4,2438.39 152.4,2446.86 143.93,2446.86 143.93,2455.33 135.47,2455.33 135.47,2463.79 127,2463.79 127,2472.26 118.53,2472.26 118.53,2480.73 110.07,2480.73 110.07,2489.19 101.6,2489.19 101.6,2497.66 93.13,2497.66 93.13,2506.13 84.67,2506.13 84.67,2514.59 76.2,2514.59 76.2,2523.06 67.73,2523.06 67.73,2531.53 59.27,2531.53 59.27,2556.93 67.73,2556.93 67.73,2565.39 76.2,2565.39 76.2,2573.86 84.67,2573.86 84.67,2582.33 93.13,2582.33 93.13,2590.79 101.6,2590.79 101.6,2599.26 110.07,2599.26 110.07,2607.73 118.53,2607.73 118.53,2616.19 127,2616.19 127,2624.66 135.47,2624.66 135.47,2633.13 143.93,2633.13 143.93,2641.59 152.4,2641.59 152.4,2650.06 160.87,2650.06 160.87,2658.53 169.33,2658.53 169.33,2666.99 177.8,2666.99 177.8,2675.46 186.27,2675.46 186.27,2683.93 194.73,2683.93 194.73,2692.39 203.2,2692.39 203.2,2700.86 211.67,2700.86 211.67,2709.33 220.13,2709.33 220.13,2717.79 228.6,2717.79 228.6,2726.26 237.07,2726.26 237.07,2734.72 254,2734.72 254,2726.26 262.47,2726.26 262.47,2717.79 270.93,2717.79 270.93,2709.33 279.4,2709.33 279.4,2700.86 287.87,2700.86 287.87,2692.39 296.33,2692.39 296.33,2683.93 304.8,2683.93 304.8,2675.46 313.27,2675.46 313.27,2666.99 321.73,2666.99 321.73,2658.53 330.2,2658.53 330.2,2650.06 338.67,2650.06 338.67,2641.59 347.13,2641.59 347.13,2633.13 355.6,2633.13 355.6,2624.66 364.07,2624.66 364.07,2616.19 372.53,2616.19 372.53,2607.73 381,2607.73 381,2599.26 389.47,2599.26 389.47,2590.79 397.93,2590.79 397.93,2573.86 414.87,2573.86 414.87,2565.39 423.33,2565.39 423.33,2556.93 431.8,2556.93 431.8,2548.46 440.27,2548.46 440.27,2539.99 448.73,2539.99 448.73,2531.53 457.2,2531.53 457.2,2523.06 465.67,2523.06 465.67,2514.59 474.13,2514.59 474.13,2506.13 482.6,2506.13 482.6,2497.66 491.07,2497.66 491.07,2489.19 499.53,2489.19 499.53,2480.73 508,2480.73 508,2472.26 516.47,2472.26 516.47,2463.79 524.93,2463.79 524.93,2455.33 533.4,2455.33 533.4,2446.86 541.87,2446.86 541.87,2438.39 550.33,2438.39 550.33,2429.93 558.8,2429.93 558.8,2421.46 567.26,2421.46 567.26,2412.99 575.73,2412.99 575.73,2404.53 584.2,2404.53 584.2,2396.06 592.66,2396.06 592.66,2387.59 601.13,2387.59 601.13,2379.13 609.6,2379.13 609.6,2370.66 618.06,2370.66 618.06,2362.19 626.53,2362.19 626.53,2353.73 635,2353.73 635,2345.26 643.46,2345.26 643.46,2336.79 651.93,2336.79 651.93,2328.33 660.4,2328.33 660.4,2319.86 668.86,2319.86 668.86,2311.39 677.33,2311.39 677.33,2302.93 685.8,2302.93 685.8,2294.46 694.26,2294.46 694.26,2285.99 702.73,2285.99 702.73,2277.53 711.2,2277.53 711.2,2269.06 719.66,2269.06 719.66,2260.59 728.13,2260.59 728.13,2252.13 736.6,2252.13 736.6,2243.66 745.06,2243.66 745.06,2235.19 753.53,2235.19 753.53,2226.73 762,2226.73 762,2218.26 770.46,2218.26 770.46,2209.79 778.93,2209.79 778.93,2201.33 787.4,2201.33 787.4,2192.86 795.86,2192.86 795.86,2184.39 804.33,2184.39 804.33,2175.93 812.8,2175.93 812.8,2167.46 821.26,2167.46 821.26,2158.99 829.73,2158.99 829.73,2150.53 838.2,2150.53 838.2,2142.06 846.66,2142.06 846.66,2133.59 855.13,2133.59 855.13,2125.13 863.6,2125.13 863.6,2116.66 872.06,2116.66 872.06,2108.19 880.53,2108.19 880.53,2099.73 889,2099.73 889,2091.26 897.46,2091.26 897.46,2082.79 905.93,2082.79 905.93,2074.33 914.4,2074.33 914.4,2065.86 922.86,2065.86 922.86,2057.39 931.33,2057.39 931.33,2048.93 939.8,2048.93 939.8,2040.46 948.26,2040.46 948.26,2031.99 956.73,2031.99 956.73,2023.53 965.2,2023.53 965.2,2015.06 973.66,2015.06 973.66,2006.59 982.13,2006.59 982.13,1998.13 990.6,1998.13 990.6,1989.66 999.06,1989.66 999.06,1981.19 1007.53,1981.19 1007.53,1972.73 1016,1972.73 1016,1964.26 1024.46,1964.26 1024.46,1955.79 1032.93,1955.79 1032.93,1947.33 1041.4,1947.33 1041.4,1938.86 1049.86,1938.86 1049.86,1930.39 1058.33,1930.39 1058.33,1921.93 1066.8,1921.93 1066.8,1913.46 1075.26,1913.46 1075.26,1904.99 1083.73,1904.99 1083.73,1896.53 1092.2,1896.53 1092.2,1888.06 1100.66,1888.06 1100.66,1879.59 1109.13,1879.59 1109.13,1871.13 1117.6,1871.13 1117.6,1862.66 1126.06,1862.66 1126.06,1854.19 1134.53,1854.19 1134.53,1845.73 1143,1845.73 1143,1837.26 1151.46,1837.26 1151.46,1828.79 1159.93,1828.79 1159.93,1820.33 1168.4,1820.33 1168.4,1811.86 1176.86,1811.86 1176.86,1803.39 1185.33,1803.39 1185.33,1794.93 1193.8,1794.93 1193.8,1786.46 1202.26,1786.46 1202.26,1777.99 1210.73,1777.99 1210.73,1769.53 1219.2,1769.53 1219.2,1761.06 1227.66,1761.06 1227.66,1752.59 1236.13,1752.59 1236.13,1744.13 1244.6,1744.13 1244.6,1735.66 1253.06,1735.66 1253.06,1727.19 1261.53,1727.19 1261.53,1718.73 1270,1718.73 1270,1710.26 1278.46,1710.26 1278.46,1701.79 1286.93,1701.79 1286.93,1693.33 1295.4,1693.33 1295.4,1684.86 1303.86,1684.86 1303.86,1676.39 1312.33,1676.39 1312.33,1667.93 1320.8,1667.93 1320.8,1659.46 1329.26,1659.46 1329.26,1650.99 1337.73,1650.99 1337.73,1642.53 1346.2,1642.53 1346.2,1634.06 1354.66,1634.06 1354.66,1625.6 1363.13,1625.6 1363.13,1617.13 1371.6,1617.13 1371.6,1608.66 1380.06,1608.66 1380.06,1600.2 1388.53,1600.2 1388.53,1591.73 1397,1591.73 1397,1583.26 1405.46,1583.26 1405.46,1574.8 1413.93,1574.8 1413.93,1566.33 1422.4,1566.33 1422.4,1557.86 1430.86,1557.86 1430.86,1549.4 1439.33,1549.4 1439.33,1540.93 1447.8,1540.93 1447.8,1532.46 1456.26,1532.46 1456.26,1524 1464.73,1524 1464.73,1515.53 1473.2,1515.53 1473.2,1507.06 1481.66,1507.06 1481.66,1498.6 "/>
   <polygon class="fil9" points="677.33,3386.66 1354.66,3386.66 1354.66,2709.33 677.33,2709.33 "/>
   <polygon class="fil5" points="2844.79,4063.99 3522.12,4063.99 3522.12,3522.12 2573.86,3522.12 2573.86,3793.06 2844.79,3793.06 "/>
   <polygon class="fil2" points="1490.13,4063.99 1490.13,3793.06 135.47,3793.06 135.47,4063.99 "/>
   <polygon class="fil7" points="2844.79,4063.99 2844.79,3793.06 1490.13,3793.06 1490.13,4063.99 "/>
   <polygon class="fil5" points="2438.39,3793.06 2438.39,3657.59 1490.13,3657.59 1490.13,3793.06 "/>
   <polygon class="fil3" points="2666.99,1337.73 2675.46,1337.73 2675.46,1346.2 2683.93,1346.2 2683.93,1354.66 2692.39,1354.66 2692.39,1363.13 2700.86,1363.13 2700.86,1371.6 2709.33,1371.6 2709.33,1380.06 2717.79,1380.06 2717.79,1388.53 2726.26,1388.53 2726.26,1397 2734.72,1397 2734.72,1405.46 2743.19,1405.46 2743.19,1413.93 2751.66,1413.93 2751.66,1422.4 2760.12,1422.4 2760.12,1430.86 2768.59,1430.86 2768.59,1439.33 2777.06,1439.33 2777.06,1447.8 2785.52,1447.8 2785.52,1456.26 2793.99,1456.26 2793.99,1464.73 2802.46,1464.73 2802.46,1473.2 2810.92,1473.2 2810.92,1481.66 2819.39,1481.66 2819.39,1490.13 2827.86,1490.13 2827.86,1498.6 2836.32,1498.6 2836.32,1507.06 2844.79,1507.06 2844.79,1143 2836.32,1143 2836.32,1151.46 2827.86,1151.46 2827.86,1159.93 2819.39,1159.93 2819.39,1168.4 2810.92,1168.4 2810.92,1176.86 2802.46,1176.86 2802.46,1185.33 2793.99,1185.33 2793.99,1193.8 2785.52,1193.8 2785.52,1202.26 2777.06,1202.26 2777.06,1210.73 2768.59,1210.73 2768.59,1219.2 2760.12,1219.2 2760.12,1227.66 2751.66,1227.66 2751.66,1236.13 2743.19,1236.13 2743.19,1244.6 2734.72,1244.6 2734.72,1253.06 2726.26,1253.06 2726.26,1261.53 2717.79,1261.53 2717.79,1270 2709.33,1270 2709.33,1278.46 2700.86,1278.46 2700.86,1286.93 2692.39,1286.93 2692.39,1295.4 2683.93,1295.4 2683.93,1303.86 2675.46,1303.86 2675.46,1312.33 2666.99,1312.33 "/>
   <polygon class="fil10" points="2158.99,1422.4 2150.53,1422.4 2150.53,1430.86 2142.06,1430.86 2142.06,1439.33 2133.59,1439.33 2133.59,1447.8 2125.13,1447.8 2125.13,1456.26 2116.66,1456.26 2116.66,1464.73 2108.19,1464.73 2108.19,1473.2 2099.73,1473.2 2099.73,1481.66 2091.26,1481.66 2091.26,1490.13 2082.79,1490.13 2082.79,1498.6 2074.33,1498.6 2074.33,1507.06 2065.86,1507.06 2065.86,1515.53 2057.39,1515.53 2057.39,1524 2048.93,1524 2048.93,1532.46 2040.46,1532.46 2040.46,1540.93 2031.99,1540.93 2031.99,1549.4 2023.53,1549.4 2023.53,1557.86 2015.06,1557.86 2015.06,1566.33 2006.59,1566.33 2006.59,1574.8 1998.13,1574.8 1998.13,1583.26 1989.66,1583.26 1989.66,1608.66 1998.13,1608.66 1998.13,1617.13 2006.59,1617.13 2006.59,1625.6 2015.06,1625.6 2015.06,1634.06 2023.53,1634.06 2023.53,1642.53 2031.99,1642.53 2031.99,1650.99 2040.46,1650.99 2040.46,1659.46 2048.93,1659.46 2048.93,1667.93 2057.39,1667.93 2057.39,1676.39 2065.86,1676.39 2065.86,1684.86 2074.33,1684.86 2074.33,1693.33 2082.79,1693.33 2082.79,1701.79 2091.26,1701.79 2091.26,1710.26 2099.73,1710.26 2099.73,1718.73 2108.19,1718.73 2108.19,1727.19 2116.66,1727.19 2116.66,1735.66 2125.13,1735.66 2125.13,1744.13 2133.59,1744.13 2133.59,1752.59 2142.06,1752.59 2142.06,1761.06 2150.53,1761.06 2150.53,1769.53 2167.46,1769.53 2167.46,1413.93 2158.99,1413.93 "/>
  </g>
 </g>
</svg>
